<svg xmlns="http://www.w3.org/2000/svg" version="1.1" xmlns:xlink="http://www.w3.org/1999/xlink" xmlns:svgjs="http://svgjs.dev/svgjs" viewBox="0 0 8.550170325735946 10.294824825908563"><g transform="matrix(1,0,0,1,0.7811618230242225,7.08281456538434)"><rect width="8.550170325735946" height="10.294824825908563" x="-0.7811618230242228" y="-7.08281456538434" fill="#000000"></rect><g><path d=" M 0.7275 0.8654999999999999 C 0.729 0.8654999999999999 0.7335 0.8654999999999999 0.7365 0.864 C 0.732 0.8625 0.732 0.861 0.732 0.858 C 0.732 0.855 0.7335 0.852 0.7335 0.849 C 0.7335 0.8475 0.7335 0.8460000000000001 0.7305 0.8460000000000001 L 0.7245 0.8460000000000001 C 0.723 0.8460000000000001 0.72 0.8460000000000001 0.72 0.8445 C 0.72 0.843 0.72 0.8415 0.7215 0.8400000000000001 C 0.7005 0.8355 0.6915 0.8325 0.6525 0.831 C 0.639 0.7095 0.5925 0.3075 0.5595 0.2310000000000001 C 0.555 0.22950000000000004 0.552 0.22950000000000004 0.5505 0.2250000000000001 C 0.546 0.2250000000000001 0.5445 0.22199999999999998 0.5415 0.22199999999999998 C 0.5415 0.22950000000000004 0.5475 0.23550000000000004 0.5475 0.23849999999999993 C 0.5415 0.23550000000000004 0.5415 0.22950000000000004 0.531 0.22950000000000004 C 0.531 0.2250000000000001 0.5295 0.2250000000000001 0.5265 0.22199999999999998 C 0.5265 0.2250000000000001 0.5295 0.22950000000000004 0.5295 0.22950000000000004 C 0.528 0.22799999999999998 0.534 0.24449999999999994 0.537 0.2489999999999999 C 0.531 0.2489999999999999 0.5295 0.24299999999999988 0.5265 0.24299999999999988 C 0.5205 0.23849999999999993 0.519 0.22950000000000004 0.5115000000000001 0.2250000000000001 L 0.5115000000000001 0.2310000000000001 C 0.51 0.22799999999999998 0.51 0.23550000000000004 0.51 0.23550000000000004 C 0.51 0.23550000000000004 0.5055000000000001 0.22950000000000004 0.5025000000000001 0.22950000000000004 C 0.507 0.23249999999999993 0.51 0.2370000000000001 0.51 0.24150000000000005 C 0.4995 0.24150000000000005 0.495 0.23249999999999993 0.4905 0.2250000000000001 C 0.4905 0.22950000000000004 0.483 0.22799999999999998 0.483 0.22950000000000004 C 0.48 0.22950000000000004 0.48 0.22649999999999992 0.48 0.22649999999999992 C 0.47850000000000004 0.22649999999999992 0.47250000000000003 0.2250000000000001 0.47250000000000003 0.2250000000000001 C 0.453 0.2144999999999999 0.47250000000000003 0.2084999999999999 0.4515 0.20100000000000007 L 0.444 0.20100000000000007 C 0.3315 0.20100000000000007 0.2685 0.405 0.2265 0.47850000000000004 C 0.17250000000000001 0.603 0.12 0.72 0.078 0.8385 C 0.07050000000000001 0.8445 0.0555 0.861 0.0555 0.876 C 0.0555 0.8805000000000001 0.057 0.885 0.06 0.8895 C 0.0405 0.9390000000000001 -0.003 1.0635 -0.003 1.101 C -0.006 1.116 -0.0075 1.1295 -0.0075 1.143 C -0.0075 1.164 -0.003 1.1865 0.0045000000000000005 1.209 L 0.015 1.218 L 0.0285 1.2255 C 0.03 1.2525 0.0465 1.2405 0.0615 1.2555 C 0.0765 1.2585 0.0735 1.26 0.0885 1.26 C 0.111 1.26 0.156 1.254 0.177 1.254 C 0.213 1.149 0.267 1.0215 0.2985 0.9375 C 0.3285 0.933 0.462 0.9315 0.507 0.9315 C 0.519 1.059 0.534 1.179 0.552 1.302 C 0.5565 1.317 0.555 1.326 0.5595 1.335 C 0.5685 1.332 0.5640000000000001 1.3215000000000001 0.5685 1.317 C 0.5685 1.314 0.5730000000000001 1.314 0.5730000000000001 1.314 L 0.5730000000000001 1.302 C 0.5730000000000001 1.299 0.5745 1.296 0.5745 1.29 C 0.5760000000000001 1.296 0.5760000000000001 1.299 0.5760000000000001 1.302 C 0.5775 1.3005 0.5775 1.2975 0.5775 1.2945 C 0.5775 1.2915 0.5775 1.2885 0.5805 1.2885 L 0.585 1.2885 C 0.5865 1.2885 0.588 1.2945 0.588 1.296 L 0.588 1.302 C 0.588 1.308 0.588 1.311 0.5895 1.311 C 0.5925 1.311 0.594 1.302 0.594 1.2945 C 0.597 1.293 0.6 1.3065 0.6 1.305 C 0.6045 1.305 0.6045 1.302 0.6075 1.302 C 0.609 1.302 0.618 1.311 0.621 1.317 C 0.6225 1.317 0.6225 1.3065 0.6225 1.3065 C 0.6255000000000001 1.3065 0.6255000000000001 1.3095 0.6255000000000001 1.3095 C 0.633 1.3095 0.6345000000000001 1.296 0.6345000000000001 1.2915 L 0.6345000000000001 1.275 C 0.6375000000000001 1.2825 0.6345000000000001 1.29 0.6405 1.302 C 0.6435 1.3125 0.6435 1.323 0.648 1.332 C 0.648 1.3245 0.648 1.3095 0.651 1.3065 C 0.651 1.305 0.648 1.305 0.648 1.302 C 0.648 1.299 0.6525 1.272 0.654 1.269 C 0.6555 1.278 0.6555 1.296 0.6645 1.299 L 0.6645 1.284 L 0.669 1.275 C 0.6705 1.2765 0.6705 1.278 0.6705 1.2795 C 0.6705 1.281 0.6705 1.284 0.672 1.2855 C 0.6735 1.287 0.6795 1.2975 0.6795 1.299 C 0.6795 1.2795 0.687 1.2405 0.687 1.2075 C 0.687 1.2 0.687 1.194 0.6855 1.188 C 0.678 1.107 0.669 1.0155 0.663 0.9345 C 0.6735 0.9315 0.681 0.9315 0.6915 0.9285 C 0.6930000000000001 0.927 0.681 0.9195 0.681 0.9179999999999999 L 0.6885 0.9179999999999999 C 0.6915 0.9165 0.6975 0.915 0.7020000000000001 0.915 C 0.7020000000000001 0.915 0.7125 0.9075 0.7125 0.903 C 0.7125 0.897 0.7125 0.8955 0.717 0.8955 C 0.717 0.891 0.7215 0.888 0.7245 0.888 C 0.7275 0.8865000000000001 0.729 0.885 0.729 0.8835 C 0.729 0.882 0.7275 0.879 0.7275 0.8775 C 0.7275 0.876 0.729 0.8745 0.732 0.8745 C 0.7305 0.873 0.7275 0.8685 0.7275 0.8654999999999999 Z M 0.3375 0.8235 C 0.396 0.6705 0.429 0.603 0.4665 0.486 C 0.468 0.5865 0.486 0.699 0.498 0.8235 C 0.4545 0.8235 0.426 0.8220000000000001 0.393 0.8220000000000001 C 0.3765 0.8220000000000001 0.3585 0.8220000000000001 0.3375 0.8235 Z M 1.1894494628906251 1.1475 C 1.2989494628906253 1.1475 1.454949462890625 0.9555 1.513449462890625 0.8505 C 1.514949462890625 0.849 1.514949462890625 0.8460000000000001 1.514949462890625 0.8415 C 1.514949462890625 0.825 1.504449462890625 0.7935 1.4894494628906252 0.7935 C 1.4849494628906252 0.7935 1.478949462890625 0.7965 1.4744494628906253 0.804 C 1.3799494628906253 0.9315 1.2749494628906253 1.056 1.2539494628906251 1.056 C 1.252449462890625 1.056 1.2509494628906253 1.0515 1.2509494628906253 1.0425 C 1.2509494628906253 1.005 1.264449462890625 0.903 1.264449462890625 0.8295 C 1.264449462890625 0.7995 1.2614494628906252 0.7725 1.255449462890625 0.759 C 1.2419494628906251 0.729 1.187949462890625 0.7155 1.1459494628906253 0.7155 C 1.129449462890625 0.7155 1.115949462890625 0.717 1.105449462890625 0.7215 C 1.033449462890625 0.75 0.9764494628906251 0.8625 0.9524494628906252 0.8985000000000001 C 0.9629494628906251 0.8505 0.9839494628906251 0.753 0.9914494628906252 0.711 L 0.9914494628906252 0.705 C 0.9914494628906252 0.6855 0.9734494628906252 0.6675 0.9524494628906252 0.6675 C 0.9449494628906251 0.6675 0.9359494628906251 0.6705 0.9284494628906251 0.6765 C 0.8954494628906251 0.6885 0.8549494628906251 0.6765 0.8444494628906252 0.7215 C 0.8234494628906252 0.8145 0.7964494628906251 0.9855 0.7964494628906251 1.083 C 0.8039494628906252 1.11 0.8249494628906251 1.098 0.8564494628906252 1.1115 C 0.8684494628906252 1.1235 0.8804494628906251 1.1295 0.8909494628906252 1.1295 C 0.9074494628906251 1.1295 0.9224494628906251 1.116 0.9314494628906251 1.0905 C 0.9824494628906251 0.984 1.028949462890625 0.885 1.103949462890625 0.798 C 1.1099494628906252 0.7995 1.111449462890625 0.81 1.111449462890625 0.825 C 1.111449462890625 0.873 1.091949462890625 0.972 1.091949462890625 1.0425 C 1.091949462890625 1.1115 1.1144494628906252 1.1475 1.1894494628906251 1.1475 Z M 1.5583886718750002 1.191 C 1.5583886718750002 1.209 1.5718886718750003 1.2255 1.5793886718750003 1.227 C 1.5793886718750003 1.2195 1.5808886718750004 1.209 1.5808886718750004 1.1985000000000001 C 1.5868886718750002 1.212 1.5883886718750002 1.2255 1.5898886718750003 1.224 C 1.5898886718750003 1.2195 1.5928886718750002 1.215 1.5943886718750002 1.209 C 1.6318886718750003 0.9390000000000001 1.6618886718750003 0.735 1.6918886718750001 0.44999999999999996 C 1.7098886718750004 0.44699999999999995 1.7938886718750002 0.4425 1.8163886718750002 0.4425 C 1.8148886718750004 0.43799999999999994 1.8103886718750002 0.4365 1.8103886718750002 0.4365 C 1.8193886718750003 0.4365 1.8313886718750003 0.4215 1.8388886718750004 0.4215 C 1.8073886718750003 0.396 1.7473886718750002 0.393 1.6993886718750002 0.393 C 1.7023886718750003 0.351 1.7128886718750003 0.30600000000000005 1.7128886718750003 0.23849999999999993 C 1.7128886718750003 0.22049999999999992 1.7128886718750003 0.20399999999999996 1.7098886718750004 0.1904999999999999 C 1.7128886718750003 0.1844999999999999 1.7128886718750003 0.17999999999999994 1.7128886718750003 0.17700000000000005 C 1.7128886718750003 0.14700000000000002 1.6453886718750002 0.14100000000000001 1.6198886718750003 0.14100000000000001 C 1.5928886718750002 0.14100000000000001 1.5628886718750001 0.14850000000000008 1.5523886718750002 0.17999999999999994 C 1.5358886718750002 0.23249999999999993 1.5253886718750003 0.34950000000000003 1.5148886718750003 0.38849999999999996 C 1.4848886718750003 0.39 1.3948886718750002 0.39149999999999996 1.3948886718750002 0.402 C 1.3948886718750002 0.4365 1.4548886718750003 0.4485 1.4953886718750002 0.4485 L 1.5058886718750002 0.4485 C 1.4833886718750002 0.645 1.4728886718750003 0.8055 1.4578886718750002 1.008 C 1.4578886718750002 1.0185 1.4563886718750003 1.0305 1.4563886718750003 1.041 C 1.4563886718750003 1.0755 1.4623886718750003 1.1925000000000001 1.4713886718750002 1.1925000000000001 C 1.4728886718750003 1.1925000000000001 1.4713886718750002 1.1655 1.4758886718750002 1.1655 C 1.4818886718750002 1.1655 1.4803886718750003 1.1895 1.4893886718750002 1.1925000000000001 C 1.4893886718750002 1.182 1.4893886718750002 1.1745 1.4938886718750002 1.1685 C 1.4938886718750002 1.1685 1.4983886718750004 1.212 1.5043886718750001 1.212 C 1.5043886718750001 1.2135 1.5058886718750002 1.1775 1.5088886718750003 1.1805 C 1.5118886718750002 1.1835 1.5148886718750003 1.227 1.5223886718750004 1.227 C 1.5193886718750003 1.2195 1.5193886718750003 1.2135 1.5193886718750003 1.2075 L 1.5193886718750003 1.1925000000000001 C 1.5223886718750004 1.1955 1.5328886718750003 1.2255 1.5373886718750003 1.224 C 1.5373886718750003 1.221 1.5388886718750003 1.218 1.5388886718750003 1.215 C 1.5403886718750002 1.218 1.5448886718750003 1.221 1.5448886718750003 1.2195 L 1.5418886718750002 1.209 C 1.5508886718750003 1.209 1.5463886718750002 1.218 1.5568886718750004 1.224 C 1.5553886718750003 1.215 1.5538886718750002 1.2105 1.5538886718750002 1.2 C 1.5538886718750002 1.194 1.5568886718750004 1.1925000000000001 1.5583886718750002 1.191 Z M 2.2093146972656252 0.7125 L 2.1748146972656253 0.711 L 2.2078146972656256 0.702 C 2.2033146972656255 0.702 2.2003146972656253 0.7035 2.195814697265625 0.7035 C 2.1298146972656253 0.708 2.1118146972656255 0.7095 2.0473146972656253 0.738 C 2.0458146972656253 0.738 2.044314697265625 0.7395 2.0428146972656256 0.7395 C 2.0098146972656252 0.753 1.9813146972656255 0.7665 1.9483146972656253 0.7725 C 1.9453146972656254 0.7695000000000001 1.9408146972656253 0.768 1.9363146972656253 0.768 C 1.9318146972656254 0.768 1.9273146972656254 0.771 1.9273146972656254 0.7755000000000001 C 1.9273146972656254 0.777 1.9318146972656254 0.783 1.9333146972656254 0.7875 C 1.9333146972656254 0.792 1.9288146972656253 0.7949999999999999 1.9288146972656253 0.798 L 1.9288146972656253 0.8115 C 1.9258146972656254 0.915 1.8928146972656255 1.0110000000000001 1.8328146972656254 1.098 C 1.8283146972656255 1.0815000000000001 1.8268146972656254 1.0665 1.8268146972656254 1.05 C 1.8268146972656254 1.0215 1.8328146972656254 0.9915 1.8373146972656254 0.966 C 1.8388146972656254 0.9615 1.8388146972656254 0.9585 1.8388146972656254 0.954 C 1.8658146972656253 0.8220000000000001 1.9303146972656253 0.705 2.0218146972656252 0.663 C 2.0293146972656255 0.663 2.0353146972656253 0.666 2.044314697265625 0.666 C 2.0473146972656253 0.666 2.0503146972656254 0.666 2.054814697265625 0.6645 C 2.0578146972656253 0.6615 2.0593146972656253 0.6585 2.0593146972656253 0.6555 C 2.0593146972656253 0.636 1.9888146972656253 0.6255000000000001 1.9738146972656254 0.6255000000000001 L 1.9603146972656253 0.6255000000000001 C 1.8043146972656254 0.6255000000000001 1.7128146972656253 0.8685 1.7128146972656253 1.0065 C 1.7128146972656253 1.0635 1.7278146972656254 1.1595 1.8013146972656253 1.1655 C 1.8073146972656253 1.1655 1.8148146972656254 1.167 1.8208146972656254 1.167 C 1.8298146972656253 1.167 1.8358146972656253 1.1655 1.8418146972656253 1.164 C 1.9288146972656253 1.1219999999999999 1.9168146972656253 1.101 1.9363146972656253 1.0635 C 1.9543146972656253 1.047 1.9678146972656254 0.9375 1.9678146972656254 0.912 C 1.9678146972656254 0.879 1.9633146972656252 0.8475 1.9573146972656255 0.8085 L 1.9618146972656254 0.8069999999999999 C 1.9678146972656254 0.8085 1.9603146972656253 0.8115 1.9723146972656254 0.8115 C 1.9918146972656254 0.8115 2.032314697265625 0.8055 2.0398146972656255 0.7935 C 2.0458146972656253 0.792 2.0473146972656253 0.7905 2.0503146972656254 0.786 C 2.0503146972656254 0.78 2.0713146972656253 0.7785 2.0803146972656252 0.7665 C 2.0878146972656255 0.7665 2.0998146972656255 0.7635 2.0998146972656255 0.756 C 2.1073146972656254 0.756 2.1133146972656256 0.7485 2.114814697265625 0.747 C 2.114814697265625 0.747 2.1133146972656256 0.7485 2.1133146972656256 0.75 C 2.1343146972656255 0.7425 2.1643146972656253 0.7275 2.194314697265625 0.7275 L 2.1913146972656254 0.72 Z M 2.1403146972656253 0.729 C 2.1508146972656252 0.7275 2.1643146972656253 0.7245 2.1748146972656253 0.7245 C 2.1793146972656254 0.7245 2.1823146972656255 0.7245 2.1853146972656257 0.726 C 2.171814697265625 0.726 2.1568146972656255 0.729 2.1418146972656253 0.7335 Z M 2.1583146972656255 0.717 C 2.1553146972656254 0.717 2.1538146972656254 0.717 2.1523146972656253 0.7155 C 2.1583146972656255 0.7155 2.1628146972656253 0.714 2.1658146972656254 0.711 C 2.1688146972656255 0.711 2.1703146972656255 0.711 2.1703146972656255 0.7125 C 2.1703146972656255 0.7155 2.161314697265625 0.717 2.1583146972656255 0.717 Z M 2.1283146972656253 0.726 C 2.1283146972656253 0.729 2.126814697265625 0.7305 2.125314697265625 0.7305 L 2.1193146972656254 0.7305 C 2.1193146972656254 0.726 2.126814697265625 0.726 2.1283146972656253 0.726 Z M 2.1298146972656253 0.735 C 2.1298146972656253 0.7395 2.1283146972656253 0.7395 2.125314697265625 0.7395 C 2.125314697265625 0.735 2.1283146972656253 0.735 2.1298146972656253 0.735 Z M 2.1343146972656255 0.735 C 2.1343146972656255 0.732 2.1358146972656256 0.7305 2.1373146972656256 0.729 C 2.1373146972656256 0.7335 2.1358146972656256 0.735 2.1343146972656255 0.735 Z M 2.4912854003906255 1.1475 C 2.6007854003906257 1.1475 2.7567854003906254 0.9555 2.8152854003906254 0.8505 C 2.8167854003906254 0.849 2.8167854003906254 0.8460000000000001 2.8167854003906254 0.8415 C 2.8167854003906254 0.825 2.8062854003906255 0.7935 2.791285400390626 0.7935 C 2.7867854003906256 0.7935 2.7807854003906254 0.7965 2.7762854003906257 0.804 C 2.6817854003906256 0.9315 2.5767854003906256 1.056 2.5557854003906257 1.056 C 2.5542854003906257 1.056 2.5527854003906256 1.0515 2.5527854003906256 1.0425 C 2.5527854003906256 1.005 2.5662854003906252 0.903 2.5662854003906252 0.8295 C 2.5662854003906252 0.7995 2.5632854003906256 0.7725 2.5572854003906254 0.759 C 2.5437854003906253 0.729 2.4897854003906255 0.7155 2.4477854003906256 0.7155 C 2.4312854003906255 0.7155 2.4177854003906254 0.717 2.4072854003906254 0.7215 C 2.3352854003906254 0.75 2.2782854003906254 0.8625 2.2542854003906254 0.8985000000000001 C 2.2647854003906254 0.8505 2.2857854003906253 0.753 2.2932854003906256 0.711 L 2.2932854003906256 0.705 C 2.2932854003906256 0.6855 2.2752854003906253 0.6675 2.2542854003906254 0.6675 C 2.2467854003906256 0.6675 2.2377854003906257 0.6705 2.2302854003906254 0.6765 C 2.1972854003906255 0.6885 2.1567854003906257 0.6765 2.1462854003906253 0.7215 C 2.1252854003906254 0.8145 2.0982854003906253 0.9855 2.0982854003906253 1.083 C 2.1057854003906256 1.11 2.1267854003906255 1.098 2.1582854003906253 1.1115 C 2.1702854003906253 1.1235 2.1822854003906254 1.1295 2.1927854003906253 1.1295 C 2.2092854003906255 1.1295 2.2242854003906256 1.116 2.2332854003906255 1.0905 C 2.2842854003906257 0.984 2.3307854003906257 0.885 2.4057854003906254 0.798 C 2.4117854003906256 0.7995 2.4132854003906257 0.81 2.4132854003906257 0.825 C 2.4132854003906257 0.873 2.3937854003906254 0.972 2.3937854003906254 1.0425 C 2.3937854003906254 1.1115 2.4162854003906253 1.1475 2.4912854003906255 1.1475 Z M 3.1347246093750005 0.6825 C 3.1287246093750007 0.6825 3.0762246093750005 0.699 3.0567246093750007 0.7215 C 3.002724609375001 0.7889999999999999 2.8977246093750004 1.0275 2.8437246093750006 1.026 C 2.8272246093750004 1.026 2.8212246093750006 1.0095 2.8212246093750006 0.987 C 2.8212246093750006 0.8565 2.8977246093750004 0.7695000000000001 2.8977246093750004 0.7155 C 2.8977246093750004 0.6975 2.8887246093750005 0.684 2.8707246093750007 0.684 C 2.849724609375001 0.684 2.8227246093750007 0.693 2.813724609375001 0.705 C 2.7777246093750008 0.7515000000000001 2.732724609375001 0.8685 2.732724609375001 0.9615 C 2.732724609375001 1.032 2.7582246093750005 1.0875 2.8362246093750008 1.0875 C 2.8887246093750005 1.0875 2.9442246093750004 1.0305 2.9847246093750006 0.9824999999999999 C 2.9652246093750008 1.092 2.930724609375001 1.2795 2.9097246093750004 1.389 C 2.9157246093750007 1.3875 2.9142246093750006 1.383 2.9157246093750007 1.383 C 2.9157246093750007 1.3905 2.9022246093750006 1.4295 2.9022246093750006 1.4325 C 2.9022246093750006 1.434 2.9067246093750008 1.434 2.9067246093750008 1.434 C 2.9067246093750008 1.4955 2.8827246093750007 1.572 2.8752246093750005 1.6395 C 2.8707246093750007 1.6455 2.8692246093750007 1.6545 2.8692246093750007 1.665 L 2.8692246093750007 1.677 C 2.8692246093750007 1.704 2.8542246093750006 1.734 2.8542246093750006 1.7655 C 2.8542246093750006 1.77 2.8557246093750006 1.776 2.8557246093750006 1.782 C 2.8527246093750005 1.7835 2.8512246093750004 1.788 2.8512246093750004 1.791 C 2.8512246093750004 1.7970000000000002 2.8527246093750005 1.803 2.8527246093750005 1.8090000000000002 C 2.8482246093750008 1.827 2.8467246093750007 1.8465 2.8467246093750007 1.8645 C 2.8467246093750007 1.9635 2.8707246093750007 1.965 2.8827246093750007 1.965 C 2.932224609375001 1.965 2.9292246093750007 1.9455 2.9367246093750006 1.9455 C 2.9397246093750007 1.9455 2.942724609375001 1.9275 2.9487246093750006 1.9275 C 2.9517246093750007 1.9275 2.9517246093750007 1.929 2.9532246093750008 1.929 C 2.9577246093750005 1.929 2.9592246093750005 1.9155 2.9682246093750004 1.9155 C 2.9697246093750005 1.9155 2.9697246093750005 1.917 2.9712246093750005 1.92 C 2.9727246093750006 1.9184999999999999 2.9727246093750006 1.917 2.9757246093750007 1.917 C 2.9757246093750007 1.917 2.978724609375001 1.9184999999999999 2.9817246093750005 1.9184999999999999 C 2.9802246093750004 1.917 2.9802246093750004 1.9125 2.9802246093750004 1.908 C 2.9802246093750004 1.9005 2.9862246093750007 1.9005 2.9967246093750006 1.9005 C 3.002724609375001 1.8975 3.0087246093750006 1.8719999999999999 3.0147246093750004 1.8719999999999999 C 3.0162246093750005 1.8719999999999999 3.0177246093750005 1.8735 3.0192246093750006 1.8795000000000002 C 3.025224609375001 1.8780000000000001 3.0237246093750008 1.8735 3.0282246093750005 1.8735 C 3.0297246093750005 1.8735 3.0327246093750007 1.8765 3.0327246093750007 1.875 C 3.0327246093750007 1.5765 3.188724609375001 0.9855 3.188724609375001 0.7845 C 3.188724609375001 0.768 3.1872246093750007 0.7545 3.1857246093750007 0.744 C 3.1782246093750004 0.708 3.1572246093750005 0.6825 3.1347246093750005 0.6825 Z M 2.9142246093750006 1.5435 C 2.9112246093750005 1.5495 2.9112246093750005 1.5585 2.9067246093750008 1.5615 C 2.9067246093750008 1.5615 2.908224609375001 1.5645 2.908224609375001 1.566 C 2.908224609375001 1.5645 2.9037246093750007 1.5825 2.9007246093750005 1.5825 C 2.9007246093750005 1.5825 2.8992246093750005 1.581 2.8992246093750005 1.578 C 2.8917246093750006 1.5825 2.8947246093750008 1.5975000000000001 2.8917246093750006 1.602 L 2.8917246093750006 1.608 C 2.8947246093750008 1.596 2.8977246093750004 1.5915 2.8992246093750005 1.5915 C 2.9007246093750005 1.5915 2.9007246093750005 1.5945 2.9007246093750005 1.599 C 2.9007246093750005 1.608 2.8992246093750005 1.623 2.8992246093750005 1.6305 C 2.8992246093750005 1.6335 2.8932246093750007 1.635 2.8902246093750006 1.6365 C 2.8887246093750005 1.6365 2.8872246093750005 1.635 2.8872246093750005 1.6335 C 2.8872246093750005 1.6320000000000001 2.8887246093750005 1.6305 2.8887246093750005 1.629 C 2.8887246093750005 1.6275 2.8812246093750007 1.6365 2.8812246093750007 1.638 C 2.8797246093750006 1.635 2.8797246093750006 1.6320000000000001 2.8797246093750006 1.629 C 2.8797246093750006 1.611 2.8887246093750005 1.5645 2.8947246093750008 1.5554999999999999 C 2.8947246093750008 1.5435 2.8992246093750005 1.536 2.9022246093750006 1.5285 L 2.9022246093750006 1.5345 C 2.9007246093750005 1.5495 2.8992246093750005 1.5735000000000001 2.8992246093750005 1.5735000000000001 C 2.9007246093750005 1.5735000000000001 2.9022246093750006 1.5705 2.9022246093750006 1.569 C 2.9022246093750006 1.566 2.9022246093750006 1.5645 2.9007246093750005 1.5615 C 2.9022246093750006 1.554 2.9052246093750007 1.545 2.908224609375001 1.5375 C 2.9067246093750008 1.5345 2.9067246093750008 1.533 2.9067246093750008 1.53 C 2.9067246093750008 1.53 2.9097246093750004 1.5075 2.9172246093750007 1.506 C 2.9172246093750007 1.5195 2.9142246093750006 1.5285 2.9127246093750006 1.5375 C 2.9127246093750006 1.5375 2.9142246093750006 1.542 2.9142246093750006 1.5435 Z M 2.8902246093750006 1.791 C 2.8902246093750006 1.8 2.885724609375001 1.806 2.8827246093750007 1.812 C 2.8827246093750007 1.8090000000000002 2.8812246093750007 1.806 2.8812246093750007 1.803 C 2.8812246093750007 1.794 2.884224609375001 1.7850000000000001 2.8872246093750005 1.7775 C 2.885724609375001 1.77 2.884224609375001 1.7625 2.884224609375001 1.758 C 2.884224609375001 1.752 2.885724609375001 1.743 2.8887246093750005 1.743 C 2.8917246093750006 1.743 2.9007246093750005 1.755 2.9007246093750005 1.758 C 2.9007246093750005 1.7685 2.896224609375001 1.7805 2.8947246093750008 1.7894999999999999 C 2.8917246093750006 1.7894999999999999 2.8902246093750006 1.791 2.8902246093750006 1.791 Z M 2.860224609375001 1.755 C 2.860224609375001 1.737 2.8632246093750005 1.71 2.8752246093750005 1.7085 C 2.8752246093750005 1.722 2.8692246093750007 1.7295 2.8662246093750006 1.737 C 2.8662246093750006 1.749 2.8662246093750006 1.7610000000000001 2.861724609375001 1.77 C 2.861724609375001 1.77 2.860224609375001 1.764 2.860224609375001 1.755 Z M 2.8932246093750007 1.6935 C 2.8917246093750006 1.692 2.8917246093750006 1.6905000000000001 2.8917246093750006 1.689 C 2.8917246093750006 1.683 2.8917246093750006 1.6785 2.8932246093750007 1.674 C 2.8917246093750006 1.677 2.8887246093750005 1.6800000000000002 2.885724609375001 1.6815 C 2.8872246093750005 1.6844999999999999 2.8887246093750005 1.689 2.8887246093750005 1.689 C 2.8827246093750007 1.6935 2.884224609375001 1.71 2.8797246093750006 1.713 L 2.8797246093750006 1.7055 C 2.8797246093750006 1.695 2.8812246093750007 1.6844999999999999 2.884224609375001 1.6755 C 2.8917246093750006 1.6755 2.8902246093750006 1.665 2.8917246093750006 1.6605 C 2.8932246093750007 1.662 2.8947246093750008 1.665 2.8947246093750008 1.6680000000000001 L 2.8992246093750005 1.653 C 2.8992246093750005 1.6515 2.9007246093750005 1.659 2.9022246093750006 1.662 C 2.9022246093750006 1.662 2.9022246093750006 1.6665 2.8992246093750005 1.6695 L 2.8992246093750005 1.6755 C 2.8992246093750005 1.683 2.8977246093750004 1.6905000000000001 2.8932246093750007 1.6935 Z M 2.861724609375001 1.8645 L 2.861724609375001 1.8435000000000001 C 2.861724609375001 1.839 2.861724609375001 1.8345 2.8632246093750005 1.83 C 2.8662246093750006 1.8345 2.8662246093750006 1.8375 2.8662246093750006 1.842 L 2.8662246093750006 1.8525 C 2.8677246093750006 1.8525 2.8677246093750006 1.8479999999999999 2.8737246093750004 1.8465 C 2.872224609375001 1.8495 2.872224609375001 1.851 2.872224609375001 1.854 L 2.872224609375001 1.863 C 2.872224609375001 1.866 2.872224609375001 1.8675000000000002 2.8692246093750007 1.869 C 2.8692246093750007 1.8675000000000002 2.8647246093750005 1.869 2.861724609375001 1.8645 Z M 2.8827246093750007 1.6440000000000001 C 2.8827246093750007 1.6440000000000001 2.8872246093750005 1.6515 2.8872246093750005 1.6545 C 2.872224609375001 1.6545 2.8797246093750006 1.7055 2.8707246093750007 1.7055 L 2.8707246093750007 1.6995 C 2.8707246093750007 1.689 2.872224609375001 1.677 2.8752246093750005 1.671 L 2.8752246093750005 1.6635 C 2.8752246093750005 1.6515 2.8782246093750006 1.6440000000000001 2.8827246093750007 1.6440000000000001 Z M 2.9172246093750007 1.494 C 2.9157246093750007 1.494 2.9157246093750007 1.488 2.9142246093750006 1.4865 C 2.9262246093750006 1.479 2.9142246093750006 1.4505 2.932224609375001 1.4415 C 2.9262246093750006 1.4595 2.9232246093750005 1.4745 2.9217246093750004 1.4895 C 2.9172246093750007 1.4895 2.9202246093750004 1.494 2.9172246093750007 1.494 Z M 2.8542246093750006 1.8225 C 2.8542246093750006 1.8195000000000001 2.8542246093750006 1.818 2.8557246093750006 1.815 L 2.8557246093750006 1.8090000000000002 C 2.8557246093750006 1.8 2.8572246093750007 1.7925 2.8572246093750007 1.7850000000000001 L 2.8632246093750005 1.7835 C 2.860224609375001 1.8 2.8572246093750007 1.818 2.8572246093750007 1.8315000000000001 L 2.8572246093750007 1.8375 C 2.8557246093750006 1.8315000000000001 2.8542246093750006 1.827 2.8542246093750006 1.8225 Z M 2.8677246093750006 1.8090000000000002 C 2.8662246093750006 1.8090000000000002 2.8662246093750006 1.8075 2.8662246093750006 1.8045 C 2.8662246093750006 1.8 2.8677246093750006 1.794 2.8677246093750006 1.7925 C 2.8677246093750006 1.791 2.8677246093750006 1.7894999999999999 2.8662246093750006 1.788 C 2.8662246093750006 1.7745000000000002 2.8707246093750007 1.7655 2.872224609375001 1.7565 C 2.872224609375001 1.7610000000000001 2.8707246093750007 1.764 2.8707246093750007 1.767 C 2.872224609375001 1.7685 2.8737246093750004 1.77 2.8737246093750004 1.7715 C 2.8737246093750004 1.7745000000000002 2.8707246093750007 1.776 2.8707246093750007 1.779 C 2.8707246093750007 1.779 2.8692246093750007 1.7955 2.8692246093750007 1.803 C 2.8677246093750006 1.806 2.8677246093750006 1.8075 2.8677246093750006 1.8090000000000002 Z M 2.908224609375001 1.4775 C 2.908224609375001 1.4745 2.9097246093750004 1.4715 2.9112246093750005 1.4715 C 2.9097246093750004 1.47 2.9097246093750004 1.467 2.9097246093750004 1.4655 C 2.9097246093750004 1.4595 2.9142246093750006 1.4535 2.9157246093750007 1.449 C 2.9157246093750007 1.461 2.9112246093750005 1.473 2.9112246093750005 1.485 C 2.9097246093750004 1.4835 2.908224609375001 1.4805 2.908224609375001 1.4775 Z M 2.8932246093750007 1.7595 C 2.8902246093750006 1.7625 2.8887246093750005 1.77 2.8887246093750005 1.7745000000000002 C 2.8887246093750005 1.7775 2.8902246093750006 1.7805 2.8917246093750006 1.7805 C 2.8932246093750007 1.7805 2.8947246093750008 1.779 2.896224609375001 1.7775 C 2.8947246093750008 1.77 2.8932246093750007 1.7655 2.8932246093750007 1.7595 Z M 2.8677246093750006 1.9035000000000002 C 2.8707246093750007 1.9020000000000001 2.8692246093750007 1.8975 2.8737246093750004 1.893 C 2.8737246093750004 1.8975 2.8752246093750005 1.9005 2.8752246093750005 1.908 C 2.8707246093750007 1.908 2.8707246093750007 1.9035000000000002 2.8677246093750006 1.9035000000000002 Z M 2.8917246093750006 1.8795000000000002 C 2.8917246093750006 1.8765 2.8932246093750007 1.8735 2.8932246093750007 1.8719999999999999 L 2.8977246093750004 1.8705 C 2.8977246093750004 1.8735 2.8977246093750004 1.8795000000000002 2.8932246093750007 1.884 C 2.8917246093750006 1.8825 2.8917246093750006 1.881 2.8917246093750006 1.8795000000000002 Z M 2.8752246093750005 1.7355 C 2.8752246093750005 1.734 2.8737246093750004 1.7325 2.8737246093750004 1.731 C 2.8737246093750004 1.728 2.8752246093750005 1.725 2.8782246093750006 1.7235 L 2.8782246093750006 1.7295 C 2.8782246093750006 1.7325 2.8782246093750006 1.7355 2.8752246093750005 1.7355 Z M 2.9022246093750006 1.6335 L 2.9067246093750008 1.6305 C 2.9067246093750008 1.6365 2.9022246093750006 1.6425 2.9007246093750005 1.6485 C 2.9007246093750005 1.641 2.9022246093750006 1.638 2.9022246093750006 1.6335 Z M 2.9277246093750007 1.3965 C 2.9277246093750007 1.3995 2.9262246093750006 1.3995 2.9262246093750006 1.404 L 2.9202246093750004 1.4055 C 2.9202246093750004 1.401 2.9262246093750006 1.3965 2.9277246093750007 1.3965 Z M 2.8737246093750004 1.7894999999999999 C 2.8737246093750004 1.7850000000000001 2.8782246093750006 1.77 2.8782246093750006 1.7685 C 2.8782246093750006 1.767 2.8797246093750006 1.7715 2.8797246093750006 1.7745000000000002 C 2.8797246093750006 1.7775 2.8782246093750006 1.7805 2.8767246093750005 1.782 C 2.8752246093750005 1.782 2.8737246093750004 1.7894999999999999 2.8737246093750004 1.7894999999999999 Z M 2.8572246093750007 1.776 C 2.8572246093750007 1.7730000000000001 2.860224609375001 1.7730000000000001 2.861724609375001 1.7715 C 2.861724609375001 1.7745000000000002 2.8632246093750005 1.7805 2.8632246093750005 1.7805 C 2.8587246093750007 1.7805 2.8572246093750007 1.7745000000000002 2.8572246093750007 1.776 Z M 2.8977246093750004 1.7985 C 2.8977246093750004 1.8 2.896224609375001 1.8014999999999999 2.8947246093750008 1.8014999999999999 L 2.8917246093750006 1.794 L 2.896224609375001 1.7925 C 2.896224609375001 1.7955 2.8977246093750004 1.7970000000000002 2.8977246093750004 1.7985 Z M 2.8512246093750004 1.8435000000000001 C 2.8512246093750004 1.8435000000000001 2.8557246093750006 1.8405 2.8572246093750007 1.8405 L 2.8542246093750006 1.851 C 2.8542246093750006 1.8495 2.8512246093750004 1.845 2.8512246093750004 1.8435000000000001 Z M 2.8737246093750004 1.7475 C 2.8737246093750004 1.7475 2.8737246093750004 1.7535 2.8692246093750007 1.7535 C 2.8692246093750007 1.7475 2.8707246093750007 1.7475 2.8737246093750004 1.7475 Z M 2.908224609375001 1.6725 C 2.908224609375001 1.6755 2.9052246093750007 1.6785 2.9052246093750007 1.683 L 2.9052246093750007 1.6665 C 2.9067246093750008 1.6680000000000001 2.908224609375001 1.6695 2.908224609375001 1.6725 Z M 4.240184326171876 0.8654999999999999 C 4.2416843261718755 0.8654999999999999 4.246184326171876 0.8654999999999999 4.249184326171876 0.864 C 4.244684326171876 0.8625 4.244684326171876 0.861 4.244684326171876 0.858 C 4.244684326171876 0.855 4.246184326171876 0.852 4.246184326171876 0.849 C 4.246184326171876 0.8475 4.246184326171876 0.8460000000000001 4.243184326171876 0.8460000000000001 L 4.237184326171876 0.8460000000000001 C 4.235684326171876 0.8460000000000001 4.232684326171876 0.8460000000000001 4.232684326171876 0.8445 C 4.232684326171876 0.843 4.232684326171876 0.8415 4.234184326171876 0.8400000000000001 C 4.213184326171876 0.8355 4.204184326171876 0.8325 4.165184326171876 0.831 C 4.151684326171876 0.7095 4.105184326171876 0.3075 4.072184326171876 0.2310000000000001 C 4.067684326171876 0.22950000000000004 4.064684326171876 0.22950000000000004 4.063184326171876 0.2250000000000001 C 4.058684326171876 0.2250000000000001 4.057184326171876 0.22199999999999998 4.0541843261718755 0.22199999999999998 C 4.0541843261718755 0.22950000000000004 4.060184326171876 0.23550000000000004 4.060184326171876 0.23849999999999993 C 4.0541843261718755 0.23550000000000004 4.0541843261718755 0.22950000000000004 4.043684326171876 0.22950000000000004 C 4.043684326171876 0.2250000000000001 4.042184326171876 0.2250000000000001 4.039184326171876 0.22199999999999998 C 4.039184326171876 0.2250000000000001 4.042184326171876 0.22950000000000004 4.042184326171876 0.22950000000000004 C 4.040684326171876 0.22799999999999998 4.046684326171876 0.24449999999999994 4.049684326171876 0.2489999999999999 C 4.043684326171876 0.2489999999999999 4.042184326171876 0.24299999999999988 4.039184326171876 0.24299999999999988 C 4.033184326171876 0.23849999999999993 4.0316843261718756 0.22950000000000004 4.024184326171876 0.2250000000000001 L 4.024184326171876 0.2310000000000001 C 4.022684326171876 0.22799999999999998 4.022684326171876 0.23550000000000004 4.022684326171876 0.23550000000000004 C 4.022684326171876 0.23550000000000004 4.018184326171876 0.22950000000000004 4.015184326171876 0.22950000000000004 C 4.019684326171876 0.23249999999999993 4.022684326171876 0.2370000000000001 4.022684326171876 0.24150000000000005 C 4.012184326171876 0.24150000000000005 4.0076843261718755 0.23249999999999993 4.003184326171876 0.2250000000000001 C 4.003184326171876 0.22950000000000004 3.995684326171876 0.22799999999999998 3.995684326171876 0.22950000000000004 C 3.992684326171876 0.22950000000000004 3.992684326171876 0.22649999999999992 3.992684326171876 0.22649999999999992 C 3.991184326171876 0.22649999999999992 3.985184326171876 0.2250000000000001 3.985184326171876 0.2250000000000001 C 3.9656843261718757 0.2144999999999999 3.985184326171876 0.2084999999999999 3.9641843261718757 0.20100000000000007 L 3.956684326171876 0.20100000000000007 C 3.844184326171876 0.20100000000000007 3.781184326171876 0.405 3.739184326171876 0.47850000000000004 C 3.6851843261718757 0.603 3.632684326171876 0.72 3.5906843261718757 0.8385 C 3.583184326171876 0.8445 3.5681843261718758 0.861 3.5681843261718758 0.876 C 3.5681843261718758 0.8805000000000001 3.569684326171876 0.885 3.572684326171876 0.8895 C 3.553184326171876 0.9390000000000001 3.5096843261718758 1.0635 3.5096843261718758 1.101 C 3.506684326171876 1.116 3.505184326171876 1.1295 3.505184326171876 1.143 C 3.505184326171876 1.164 3.5096843261718758 1.1865 3.517184326171876 1.209 L 3.527684326171876 1.218 L 3.541184326171876 1.2255 C 3.5426843261718757 1.2525 3.559184326171876 1.2405 3.574184326171876 1.2555 C 3.5891843261718757 1.2585 3.586184326171876 1.26 3.6011843261718757 1.26 C 3.623684326171876 1.26 3.668684326171876 1.254 3.689684326171876 1.254 C 3.725684326171876 1.149 3.7796843261718758 1.0215 3.811184326171876 0.9375 C 3.841184326171876 0.933 3.974684326171876 0.9315 4.019684326171876 0.9315 C 4.0316843261718756 1.059 4.046684326171876 1.179 4.064684326171876 1.302 C 4.069184326171876 1.317 4.067684326171876 1.326 4.072184326171876 1.335 C 4.081184326171876 1.332 4.0766843261718755 1.3215000000000001 4.081184326171876 1.317 C 4.081184326171876 1.314 4.085684326171876 1.314 4.085684326171876 1.314 L 4.085684326171876 1.302 C 4.085684326171876 1.299 4.087184326171876 1.296 4.087184326171876 1.29 C 4.088684326171876 1.296 4.088684326171876 1.299 4.088684326171876 1.302 C 4.090184326171876 1.3005 4.090184326171876 1.2975 4.090184326171876 1.2945 C 4.090184326171876 1.2915 4.090184326171876 1.2885 4.093184326171876 1.2885 L 4.097684326171876 1.2885 C 4.099184326171876 1.2885 4.1006843261718755 1.2945 4.1006843261718755 1.296 L 4.1006843261718755 1.302 C 4.1006843261718755 1.308 4.1006843261718755 1.311 4.102184326171876 1.311 C 4.105184326171876 1.311 4.106684326171876 1.302 4.106684326171876 1.2945 C 4.109684326171876 1.293 4.112684326171876 1.3065 4.112684326171876 1.305 C 4.117184326171876 1.305 4.117184326171876 1.302 4.120184326171876 1.302 C 4.121684326171875 1.302 4.130684326171876 1.311 4.133684326171876 1.317 C 4.135184326171876 1.317 4.135184326171876 1.3065 4.135184326171876 1.3065 C 4.138184326171876 1.3065 4.138184326171876 1.3095 4.138184326171876 1.3095 C 4.145684326171876 1.3095 4.147184326171876 1.296 4.147184326171876 1.2915 L 4.147184326171876 1.275 C 4.150184326171876 1.2825 4.147184326171876 1.29 4.153184326171876 1.302 C 4.156184326171876 1.3125 4.156184326171876 1.323 4.160684326171876 1.332 C 4.160684326171876 1.3245 4.160684326171876 1.3095 4.163684326171876 1.3065 C 4.163684326171876 1.305 4.160684326171876 1.305 4.160684326171876 1.302 C 4.160684326171876 1.299 4.165184326171876 1.272 4.166684326171876 1.269 C 4.168184326171875 1.278 4.168184326171875 1.296 4.177184326171876 1.299 L 4.177184326171876 1.284 L 4.181684326171876 1.275 C 4.183184326171876 1.2765 4.183184326171876 1.278 4.183184326171876 1.2795 C 4.183184326171876 1.281 4.183184326171876 1.284 4.184684326171876 1.2855 C 4.186184326171876 1.287 4.192184326171876 1.2975 4.192184326171876 1.299 C 4.192184326171876 1.2795 4.199684326171876 1.2405 4.199684326171876 1.2075 C 4.199684326171876 1.2 4.199684326171876 1.194 4.198184326171876 1.188 C 4.190684326171876 1.107 4.181684326171876 1.0155 4.175684326171876 0.9345 C 4.186184326171876 0.9315 4.193684326171876 0.9315 4.204184326171876 0.9285 C 4.205684326171876 0.927 4.193684326171876 0.9195 4.193684326171876 0.9179999999999999 L 4.201184326171876 0.9179999999999999 C 4.204184326171876 0.9165 4.210184326171876 0.915 4.214684326171876 0.915 C 4.214684326171876 0.915 4.225184326171876 0.9075 4.225184326171876 0.903 C 4.225184326171876 0.897 4.225184326171876 0.8955 4.229684326171876 0.8955 C 4.229684326171876 0.891 4.234184326171876 0.888 4.237184326171876 0.888 C 4.240184326171876 0.8865000000000001 4.2416843261718755 0.885 4.2416843261718755 0.8835 C 4.2416843261718755 0.882 4.240184326171876 0.879 4.240184326171876 0.8775 C 4.240184326171876 0.876 4.2416843261718755 0.8745 4.244684326171876 0.8745 C 4.243184326171876 0.873 4.240184326171876 0.8685 4.240184326171876 0.8654999999999999 Z M 3.850184326171876 0.8235 C 3.908684326171876 0.6705 3.9416843261718757 0.603 3.979184326171876 0.486 C 3.980684326171876 0.5865 3.998684326171876 0.699 4.010684326171876 0.8235 C 3.9671843261718758 0.8235 3.938684326171876 0.8220000000000001 3.905684326171876 0.8220000000000001 C 3.889184326171876 0.8220000000000001 3.8711843261718757 0.8220000000000001 3.850184326171876 0.8235 Z M 4.499633789062501 0.63 C 4.516133789062501 0.4605 4.550633789062501 0.2925 4.571633789062501 0.12749999999999995 C 4.571633789062501 0.12149999999999994 4.573133789062501 0.11699999999999999 4.573133789062501 0.11099999999999999 C 4.573133789062501 0.08400000000000007 4.562633789062501 0.06149999999999989 4.534133789062501 0.06149999999999989 L 4.526633789062501 0.06149999999999989 C 4.507133789062501 0.06149999999999989 4.454633789062501 0.06600000000000006 4.436633789062501 0.07650000000000001 C 4.421633789062501 0.08549999999999991 4.424633789062501 0.10349999999999993 4.415633789062501 0.11250000000000004 C 4.403633789062501 0.15450000000000008 4.394633789062501 0.1935 4.387133789062501 0.23249999999999993 C 4.330133789062501 0.5475 4.291133789062501 0.8985000000000001 4.267133789062501 1.1715 L 4.267133789062501 1.2285 C 4.267133789062501 1.248 4.268633789062501 1.2705 4.276133789062501 1.284 C 4.279133789062501 1.287 4.279133789062501 1.2945 4.282133789062501 1.2945 C 4.285133789062501 1.2915 4.288133789062501 1.2915 4.291133789062501 1.29 C 4.291133789062501 1.2855 4.285133789062501 1.2825 4.285133789062501 1.2765 C 4.288133789062501 1.2735 4.289633789062501 1.2675 4.292633789062501 1.2675 C 4.294133789062501 1.2675 4.295633789062501 1.269 4.297133789062501 1.269 C 4.297133789062501 1.2645 4.297133789062501 1.2615 4.298633789062501 1.26 C 4.300133789062501 1.2630000000000001 4.300133789062501 1.266 4.303133789062501 1.266 C 4.306133789062501 1.2675 4.307633789062501 1.2675 4.310633789062501 1.2675 C 4.310633789062501 1.266 4.313633789062501 1.266 4.315133789062501 1.2630000000000001 C 4.316633789062501 1.2570000000000001 4.316633789062501 1.2555 4.318133789062501 1.2555 C 4.319633789062501 1.2555 4.321133789062501 1.2585 4.322633789062501 1.2585 C 4.322633789062501 1.2570000000000001 4.330133789062501 1.2570000000000001 4.331633789062501 1.2555 C 4.331633789062501 1.2525 4.331633789062501 1.2510000000000001 4.334633789062501 1.248 C 4.336133789062501 1.2495 4.337633789062501 1.2495 4.339133789062501 1.2495 C 4.342133789062501 1.2495 4.343633789062501 1.248 4.345133789062501 1.248 C 4.348133789062501 1.248 4.348133789062501 1.2510000000000001 4.349633789062501 1.2510000000000001 C 4.352633789062501 1.2510000000000001 4.349633789062501 1.2465 4.355633789062501 1.2465 C 4.355633789062501 1.248 4.355633789062501 1.2510000000000001 4.358633789062501 1.2525 C 4.361633789062501 1.2510000000000001 4.358633789062501 1.248 4.363133789062501 1.2435 C 4.363133789062501 1.2465 4.366133789062501 1.2465 4.369133789062501 1.2465 C 4.3736337890625006 1.2465 4.375133789062501 1.2435 4.378133789062501 1.2435 C 4.384133789062501 1.2435 4.381133789062501 1.239 4.387133789062501 1.236 C 4.387133789062501 1.2375 4.385633789062501 1.2405 4.385633789062501 1.242 C 4.385633789062501 1.242 4.390133789062501 1.2345 4.394633789062501 1.2345 C 4.394633789062501 1.239 4.397633789062501 1.2405 4.400633789062501 1.242 C 4.412633789062501 1.236 4.403633789062501 1.2315 4.411133789062501 1.224 C 4.417133789062501 1.221 4.418633789062501 1.2195 4.420133789062501 1.2135 C 4.423133789062501 1.2105 4.426133789062501 1.2 4.426133789062501 1.1925000000000001 L 4.429133789062501 1.1685 C 4.429133789062501 1.161 4.432133789062501 1.1535 4.432133789062501 1.146 C 4.433633789062501 1.137 4.432133789062501 1.1295 4.436633789062501 1.1219999999999999 C 4.450133789062501 1.1219999999999999 4.454633789062501 1.1219999999999999 4.465133789062501 1.125 C 4.468133789062501 1.125 4.481633789062501 1.1235 4.481633789062501 1.1235 C 4.486133789062501 1.1235 4.489133789062501 1.119 4.490633789062501 1.119 C 4.496633789062501 1.119 4.499633789062501 1.1219999999999999 4.502633789062501 1.1219999999999999 C 4.507133789062501 1.1219999999999999 4.510133789062501 1.119 4.514633789062501 1.119 L 4.522133789062501 1.119 C 4.528133789062501 1.119 4.532633789062501 1.1145 4.538633789062501 1.1145 C 4.538633789062501 1.1085 4.544633789062501 1.1085 4.549133789062501 1.107 L 4.577633789062501 1.0905 C 4.580633789062501 1.0875 4.583633789062501 1.083 4.588133789062501 1.083 C 4.588133789062501 1.083 4.588133789062501 1.077 4.591133789062501 1.077 L 4.598633789062501 1.077 C 4.601633789062501 1.0755 4.600133789062501 1.071 4.601633789062501 1.0695000000000001 C 4.603133789062501 1.065 4.609133789062501 1.065 4.609133789062501 1.0575 C 4.609133789062501 1.056 4.622633789062501 1.0395 4.627133789062501 1.0305 C 4.633133789062501 1.0230000000000001 4.636133789062501 1.0155 4.640633789062501 1.0095 C 4.643633789062501 1.0065 4.645133789062501 1.002 4.645133789062501 0.996 C 4.664633789062501 0.9495 4.673633789062501 0.9045000000000001 4.673633789062501 0.864 C 4.673633789062501 0.7515000000000001 4.606133789062501 0.6645 4.499633789062501 0.63 Z M 4.439633789062501 1.0755 C 4.439633789062501 1.068 4.442633789062501 1.0635 4.442633789062501 1.056 C 4.445633789062501 0.9884999999999999 4.472633789062501 0.8340000000000001 4.481633789062501 0.75 C 4.538633789062501 0.7725 4.5611337890625006 0.8205 4.5611337890625006 0.8745 C 4.5611337890625006 0.9570000000000001 4.507133789062501 1.0485 4.439633789062501 1.0755 Z M 4.345133789062501 1.0515 C 4.343633789062501 1.05 4.342133789062501 1.047 4.342133789062501 1.0455 C 4.342133789062501 1.041 4.345133789062501 1.0365 4.345133789062501 1.0335 C 4.342133789062501 1.0335 4.342133789062501 1.035 4.339133789062501 1.035 C 4.339133789062501 1.0215 4.342133789062501 1.0110000000000001 4.342133789062501 0.999 C 4.337633789062501 1.0005 4.339133789062501 1.008 4.337633789062501 1.0155 C 4.336133789062501 1.0155 4.336133789062501 1.0125 4.336133789062501 1.0110000000000001 C 4.336133789062501 1.008 4.337633789062501 1.0035 4.337633789062501 1.002 C 4.337633789062501 1.0005 4.339133789062501 0.993 4.339133789062501 0.9884999999999999 C 4.339133789062501 0.99 4.346633789062501 0.9824999999999999 4.349633789062501 0.978 C 4.352633789062501 0.981 4.354133789062501 0.987 4.354133789062501 0.9915 C 4.354133789062501 0.9975 4.346633789062501 1.0485 4.345133789062501 1.0515 Z M 4.342133789062501 1.0905 C 4.339133789062501 1.092 4.339133789062501 1.095 4.334633789062501 1.095 L 4.334633789062501 1.0875 C 4.334633789062501 1.0845 4.336133789062501 1.0845 4.337633789062501 1.0845 C 4.339133789062501 1.0755 4.340633789062501 1.068 4.343633789062501 1.0605 L 4.345133789062501 1.068 C 4.345133789062501 1.0755 4.343633789062501 1.083 4.342133789062501 1.0905 Z M 4.360133789062501 1.0725 C 4.357133789062501 1.0725 4.357133789062501 1.074 4.357133789062501 1.0755 C 4.358633789062501 1.0755 4.355633789062501 1.08 4.354133789062501 1.08 C 4.354133789062501 1.083 4.357133789062501 1.0845 4.357133789062501 1.0845 L 4.357133789062501 1.0905 C 4.355633789062501 1.089 4.354133789062501 1.0875 4.352633789062501 1.0875 L 4.352633789062501 1.08 C 4.354133789062501 1.0785 4.354133789062501 1.077 4.354133789062501 1.0755 C 4.352633789062501 1.0755 4.351133789062501 1.0725 4.351133789062501 1.071 C 4.351133789062501 1.068 4.352633789062501 1.065 4.352633789062501 1.0635 C 4.354133789062501 1.062 4.355633789062501 1.062 4.357133789062501 1.062 C 4.357133789062501 1.062 4.358633789062501 1.065 4.358633789062501 1.0665 C 4.358633789062501 1.0695000000000001 4.358633789062501 1.0725 4.360133789062501 1.0725 Z M 4.333133789062501 1.0335 C 4.331633789062501 1.032 4.331633789062501 1.0305 4.331633789062501 1.029 C 4.331633789062501 1.026 4.333133789062501 1.0230000000000001 4.334633789062501 1.02 C 4.336133789062501 1.0215 4.337633789062501 1.0275 4.337633789062501 1.0275 C 4.337633789062501 1.0305 4.334633789062501 1.0335 4.334633789062501 1.035 L 4.334633789062501 1.044 C 4.334633789062501 1.047 4.334633789062501 1.05 4.330133789062501 1.0515 C 4.330133789062501 1.0425 4.331633789062501 1.0365 4.333133789062501 1.0335 Z M 4.564133789062501 0.993 C 4.564133789062501 0.99 4.567133789062501 0.9735 4.568633789062501 0.9735 C 4.570133789062501 0.9735 4.571633789062501 0.987 4.571633789062501 0.9884999999999999 C 4.571633789062501 0.9915 4.570133789062501 0.993 4.568633789062501 0.996 Z M 4.325633789062501 1.0725 C 4.324133789062501 1.071 4.322633789062501 1.068 4.322633789062501 1.065 C 4.322633789062501 1.062 4.324133789062501 1.059 4.325633789062501 1.056 C 4.330133789062501 1.0575 4.331633789062501 1.059 4.331633789062501 1.0605 Z M 4.339133789062501 0.972 C 4.339133789062501 0.978 4.339133789062501 0.981 4.337633789062501 0.9824999999999999 C 4.334633789062501 0.981 4.333133789062501 0.978 4.333133789062501 0.9765 C 4.333133789062501 0.9735 4.336133789062501 0.972 4.339133789062501 0.972 Z M 4.300133789062501 1.101 C 4.300133789062501 1.098 4.300133789062501 1.095 4.303133789062501 1.092 C 4.304633789062501 1.0935 4.306133789062501 1.095 4.306133789062501 1.098 C 4.306133789062501 1.0995 4.304633789062501 1.101 4.300133789062501 1.101 Z M 4.342133789062501 1.0230000000000001 C 4.345133789062501 1.0230000000000001 4.346633789062501 1.0230000000000001 4.346633789062501 1.02 C 4.346633789062501 1.0155 4.346633789062501 1.014 4.345133789062501 1.014 C 4.343633789062501 1.014 4.342133789062501 1.0185 4.342133789062501 1.0230000000000001 Z M 4.555133789062501 1.1085 C 4.556633789062501 1.1085 4.558133789062501 1.11 4.559633789062501 1.11 C 4.562633789062501 1.11 4.564133789062501 1.1085 4.564133789062501 1.104 C 4.559633789062501 1.104 4.556633789062501 1.107 4.555133789062501 1.1085 Z M 4.354133789062501 1.104 C 4.357133789062501 1.1055 4.357133789062501 1.1085 4.357133789062501 1.11 C 4.357133789062501 1.113 4.355633789062501 1.1145 4.354133789062501 1.116 Z M 4.345133789062501 0.99 C 4.342133789062501 0.9915 4.342133789062501 0.9944999999999999 4.342133789062501 0.996 C 4.343633789062501 0.996 4.349633789062501 0.9944999999999999 4.349633789062501 0.9915 C 4.346633789062501 0.9915 4.345133789062501 0.99 4.345133789062501 0.99 Z M 4.307633789062501 1.077 C 4.307633789062501 1.0755 4.310633789062501 1.0725 4.310633789062501 1.0695000000000001 C 4.312133789062501 1.071 4.312133789062501 1.0725 4.312133789062501 1.074 C 4.312133789062501 1.0755 4.310633789062501 1.077 4.307633789062501 1.077 Z M 4.354133789062501 1.056 C 4.354133789062501 1.0545 4.354133789062501 1.0515 4.355633789062501 1.0515 C 4.355633789062501 1.0515 4.355633789062501 1.0575 4.354133789062501 1.056 Z M 5.1986279296875 0.8985000000000001 C 5.1986279296875 0.9 5.2001279296875005 0.9045000000000001 5.2016279296875005 0.9045000000000001 C 5.218127929687501 0.873 5.231627929687501 0.87 5.231627929687501 0.861 C 5.231627929687501 0.849 5.251127929687501 0.8325 5.257127929687501 0.825 C 5.255627929687501 0.8295 5.254127929687501 0.8385 5.251127929687501 0.8415 L 5.2421279296875 0.8505 C 5.228627929687501 0.879 5.1971279296875 0.9225 5.1746279296875 0.9525 C 5.1746279296875 0.9495 5.170127929687501 0.948 5.170127929687501 0.948 C 5.165627929687501 0.9510000000000001 5.162627929687501 0.9675 5.162627929687501 0.9765 C 5.162627929687501 0.981 5.164127929687501 0.984 5.164127929687501 0.984 C 5.209127929687501 0.9285 5.273627929687501 0.8415 5.273627929687501 0.8055 C 5.273627929687501 0.8009999999999999 5.276627929687501 0.7949999999999999 5.276627929687501 0.7889999999999999 C 5.276627929687501 0.7845 5.275127929687501 0.7875 5.275127929687501 0.78 C 5.275127929687501 0.78 5.275127929687501 0.7755000000000001 5.273627929687501 0.7755000000000001 C 5.264627929687501 0.798 5.263127929687501 0.8085 5.252627929687501 0.819 C 5.252627929687501 0.8145 5.257127929687501 0.813 5.257127929687501 0.8085 C 5.257127929687501 0.8055 5.2451279296875 0.831 5.231627929687501 0.8415 C 5.258627929687501 0.7875 5.258627929687501 0.783 5.261627929687501 0.783 C 5.261627929687501 0.7845 5.260127929687501 0.7905 5.260127929687501 0.7935 C 5.2676279296875 0.786 5.2691279296875 0.7755000000000001 5.2691279296875 0.7695000000000001 L 5.2691279296875 0.7635 C 5.2691279296875 0.759 5.273627929687501 0.7515000000000001 5.276627929687501 0.7485 C 5.2691279296875 0.7455 5.2691279296875 0.738 5.264627929687501 0.738 C 5.263127929687501 0.738 5.260127929687501 0.7395 5.255627929687501 0.744 L 5.2436279296875 0.759 C 5.209127929687501 0.8115 5.0606279296875005 1.032 4.9196279296875005 1.032 C 4.862627929687501 1.032 4.8221279296875 1.002 4.8221279296875 0.9435 C 4.8221279296875 0.9299999999999999 4.8251279296875005 0.9135 4.831127929687501 0.8955 C 4.8476279296875004 0.8985000000000001 4.8686279296875 0.9015 4.8896279296875 0.9015 C 5.029127929687501 0.9015 5.062127929687501 0.8025 5.062127929687501 0.7545 C 5.062127929687501 0.7155 5.045627929687501 0.702 5.042627929687501 0.69 C 5.039627929687501 0.6825 5.041127929687501 0.66 5.0321279296875 0.66 C 5.0306279296875 0.66 5.029127929687501 0.66 5.027627929687501 0.6615 C 5.027627929687501 0.663 5.029127929687501 0.6645 5.029127929687501 0.666 C 5.0081279296875 0.6555 5.0081279296875 0.639 4.979627929687501 0.639 C 4.832627929687501 0.639 4.7081279296875005 0.8265 4.7081279296875005 0.954 C 4.7081279296875005 1.02 4.733627929687501 1.083 4.789127929687501 1.1325 L 4.789127929687501 1.125 C 4.790627929687501 1.125 4.816127929687501 1.137 4.8191279296875 1.1400000000000001 C 4.8236279296875 1.143 4.828127929687501 1.1415 4.838627929687501 1.1445 C 4.837127929687501 1.1415 4.829627929687501 1.1400000000000001 4.8266279296875005 1.137 C 4.8461279296875 1.143 4.8731279296875005 1.146 4.888127929687501 1.146 C 4.883627929687501 1.143 4.8716279296875005 1.1415 4.8716279296875005 1.1415 C 4.853627929687501 1.1415 4.834127929687501 1.1400000000000001 4.8221279296875 1.1280000000000001 C 4.831127929687501 1.131 4.841627929687501 1.1325 4.850627929687501 1.137 L 4.856627929687501 1.137 C 4.861127929687501 1.137 4.864127929687501 1.137 4.8656279296875 1.1400000000000001 C 4.8686279296875 1.1400000000000001 4.8671279296875 1.137 4.8686279296875 1.137 C 4.8731279296875005 1.137 4.882127929687501 1.1400000000000001 4.886627929687501 1.1400000000000001 C 4.900127929687501 1.1400000000000001 4.906127929687501 1.149 4.921127929687501 1.149 C 4.925627929687501 1.149 4.934627929687501 1.149 4.9421279296875005 1.146 C 5.0561279296875 1.1205 5.1296279296875005 1.0275 5.1536279296875005 0.9975 C 5.159627929687501 0.9915 5.156627929687501 0.9510000000000001 5.171627929687501 0.942 C 5.1776279296875005 0.942 5.182127929687501 0.9239999999999999 5.185127929687501 0.9195 C 5.191127929687501 0.921 5.191127929687501 0.906 5.1956279296875 0.9 C 5.1956279296875 0.9 5.1971279296875 0.8985000000000001 5.1986279296875 0.8985000000000001 Z M 4.975127929687501 0.705 C 4.981127929687501 0.705 4.9856279296875 0.705 4.9901279296875005 0.7065 C 4.975127929687501 0.768 4.8731279296875005 0.8160000000000001 4.850627929687501 0.8325 C 4.862627929687501 0.798 4.886627929687501 0.762 4.9121279296875 0.7335 C 4.928627929687501 0.72 4.951127929687501 0.705 4.975127929687501 0.705 Z M 5.2016279296875005 0.888 C 5.2016279296875005 0.894 5.1971279296875 0.897 5.1956279296875 0.9 C 5.1941279296875 0.9 5.179127929687501 0.915 5.179127929687501 0.921 C 5.170127929687501 0.921 5.168627929687501 0.933 5.162627929687501 0.9359999999999999 C 5.165627929687501 0.933 5.165627929687501 0.9285 5.168627929687501 0.927 C 5.165627929687501 0.9285 5.162627929687501 0.9315 5.161127929687501 0.9315 C 5.161127929687501 0.9225 5.167127929687501 0.9179999999999999 5.170127929687501 0.9105000000000001 C 5.179127929687501 0.9105000000000001 5.183627929687501 0.8835 5.1926279296875 0.873 C 5.1941279296875 0.8745 5.1941279296875 0.876 5.1941279296875 0.8775 C 5.1941279296875 0.8865000000000001 5.185127929687501 0.9045000000000001 5.180627929687501 0.9105000000000001 C 5.185127929687501 0.9045000000000001 5.1956279296875 0.888 5.1956279296875 0.8895 C 5.1956279296875 0.8805000000000001 5.207627929687501 0.861 5.213627929687501 0.858 C 5.210627929687501 0.864 5.204627929687501 0.8685 5.203127929687501 0.876 C 5.203127929687501 0.882 5.2016279296875005 0.885 5.2016279296875005 0.888 Z M 5.2196279296875 0.8505 C 5.2196279296875 0.8475 5.2196279296875 0.8460000000000001 5.218127929687501 0.8460000000000001 C 5.215127929687501 0.8460000000000001 5.210627929687501 0.8565 5.209127929687501 0.858 C 5.209127929687501 0.831 5.234627929687501 0.81 5.2481279296875005 0.7949999999999999 C 5.2451279296875 0.8025 5.225627929687501 0.825 5.227127929687501 0.831 C 5.2211279296875 0.837 5.2226279296875004 0.843 5.2196279296875 0.8505 Z M 4.9586279296875 0.6615 C 4.955627929687501 0.6615 4.952627929687501 0.66 4.948127929687501 0.66 C 4.9406279296875 0.6645 4.931627929687501 0.6675 4.922627929687501 0.669 C 4.930127929687501 0.6615 4.951127929687501 0.6555 4.955627929687501 0.654 C 4.955627929687501 0.6555 4.957127929687501 0.657 4.9601279296875 0.657 L 4.9676279296875006 0.657 C 4.9676279296875006 0.6585 4.9616279296875 0.6615 4.9586279296875 0.6615 Z M 5.0546279296875 0.7215 C 5.050127929687501 0.7185 5.048627929687501 0.7095 5.045627929687501 0.705 L 5.045627929687501 0.717 C 5.041127929687501 0.72 5.039627929687501 0.6945 5.039627929687501 0.693 C 5.045627929687501 0.6975 5.0546279296875 0.7155 5.0546279296875 0.7215 Z M 4.9601279296875 0.6495 C 4.9616279296875 0.6495 4.9631279296875 0.6495 4.9646279296875 0.651 C 4.9676279296875006 0.651 4.969127929687501 0.651 4.972127929687501 0.6495 C 4.973627929687501 0.6495 4.975127929687501 0.6495 4.978127929687501 0.651 C 4.952627929687501 0.651 4.927127929687501 0.6615 4.907627929687501 0.675 C 4.9166279296875 0.666 4.930127929687501 0.657 4.946627929687501 0.654 C 4.946627929687501 0.6525 4.955627929687501 0.6495 4.9601279296875 0.6495 Z M 4.970627929687501 0.642 C 4.973627929687501 0.642 4.976627929687501 0.642 4.979627929687501 0.6435 L 4.954127929687501 0.648 C 4.952627929687501 0.645 4.9646279296875 0.6465 4.9646279296875 0.6435 C 4.9661279296875005 0.642 4.9676279296875006 0.642 4.970627929687501 0.642 Z M 5.3785810546875 0.735 C 5.4760810546875005 0.5505 5.5600810546875 0.42600000000000005 5.5945810546875006 0.20550000000000002 C 5.597581054687501 0.1844999999999999 5.599081054687501 0.16500000000000004 5.599081054687501 0.14850000000000008 C 5.599081054687501 0.06600000000000006 5.5645810546875 0.02849999999999997 5.5090810546875 0.02849999999999997 C 5.3230810546875 0.02849999999999997 5.2180810546875005 0.47250000000000003 5.201581054687501 0.6105 C 5.1925810546875 0.684 5.1880810546875 0.7515000000000001 5.1880810546875 0.8145 C 5.1880810546875 0.9375 5.2075810546875 1.0335 5.2525810546875 1.0755 C 5.291581054687501 1.1115 5.3290810546875 1.1325 5.3710810546875 1.1325 C 5.4430810546875 1.1325 5.5225810546875005 1.071 5.6275810546875 0.9255 C 5.6500810546875 0.8955 5.716081054687501 0.786 5.7190810546875 0.774 C 5.7190810546875 0.759 5.7100810546875005 0.7335 5.690581054687501 0.7335 C 5.6800810546875 0.7335 5.668081054687501 0.7455 5.6560810546875 0.7635 L 5.6515810546875 0.771 C 5.5630810546875 0.9105000000000001 5.4250810546875 1.08 5.389081054687501 1.08 C 5.387581054687501 1.08 5.386081054687501 1.08 5.384581054687501 1.0785 C 5.3725810546875 1.068 5.3680810546875 1.0230000000000001 5.3680810546875 0.9675 C 5.3680810546875 0.8805000000000001 5.3755810546875 0.771 5.3785810546875 0.735 Z M 5.5435810546875 0.09299999999999997 C 5.5435810546875 0.09149999999999991 5.5450810546875005 0.10499999999999998 5.5450810546875005 0.11250000000000004 C 5.5165810546875 0.2925 5.458081054687501 0.42900000000000005 5.387581054687501 0.5865 C 5.3920810546875 0.48150000000000004 5.4850810546875 0.18300000000000005 5.5435810546875 0.09299999999999997 Z M 5.3545810546875 0.9915 C 5.3530810546875 0.9915 5.3485810546875 0.9315 5.3485810546875 0.894 C 5.3485810546875 0.885 5.3500810546875 0.8775 5.3500810546875 0.8714999999999999 C 5.3500810546875 0.8654999999999999 5.3515810546875 0.8625 5.3515810546875 0.861 C 5.3515810546875 0.8385 5.3575810546875005 0.7935 5.3575810546875005 0.7905 C 5.3590810546875005 0.7949999999999999 5.3590810546875005 0.8025 5.3590810546875005 0.81 C 5.3590810546875005 0.8325 5.3560810546875 0.8654999999999999 5.3545810546875 0.8775 L 5.3545810546875 0.882 L 5.3590810546875005 0.8745 C 5.3590810546875005 0.8775 5.3560810546875 0.882 5.3560810546875 0.885 C 5.3560810546875 0.8865000000000001 5.3530810546875 0.891 5.3530810546875 0.8925000000000001 L 5.3530810546875 0.9450000000000001 C 5.3530810546875 0.9615 5.3530810546875 0.9765 5.3545810546875 0.987 Z M 5.3515810546875 1.005 C 5.3455810546875 0.984 5.3455810546875 0.966 5.3455810546875 0.948 L 5.3455810546875 0.9255 C 5.3485810546875 0.948 5.3500810546875 0.9765 5.3515810546875 1.005 Z M 5.3545810546875 1.0485 C 5.3515810546875 1.0425 5.3500810546875 1.0335 5.3500810546875 1.026 C 5.3500810546875 1.0215 5.3515810546875 1.017 5.3515810546875 1.014 C 5.3545810546875 1.02 5.3545810546875 1.0335 5.3545810546875 1.0485 Z M 5.341081054687501 0.852 C 5.341081054687501 0.8415 5.3440810546875 0.8280000000000001 5.3455810546875 0.8160000000000001 C 5.3455810546875 0.8325 5.3440810546875 0.8505 5.3440810546875 0.8685 Z M 5.3335810546875 0.8714999999999999 C 5.3350810546875005 0.873 5.3365810546875005 0.885 5.3365810546875005 0.8865000000000001 C 5.3365810546875005 0.8895 5.3350810546875005 0.8925000000000001 5.3350810546875005 0.894 C 5.3335810546875 0.888 5.3335810546875 0.8805000000000001 5.3335810546875 0.8714999999999999 Z M 5.3470810546875 0.9179999999999999 C 5.3470810546875 0.915 5.342581054687501 0.9105000000000001 5.342581054687501 0.906 C 5.342581054687501 0.9045000000000001 5.3455810546875 0.903 5.3470810546875 0.9015 Z M 5.338081054687501 0.7845 C 5.339581054687501 0.7845 5.339581054687501 0.786 5.339581054687501 0.7889999999999999 C 5.339581054687501 0.7949999999999999 5.338081054687501 0.8025 5.3365810546875005 0.804 Z M 5.3320810546875 0.8445 L 5.3350810546875005 0.8355 C 5.3350810546875005 0.8385 5.3365810546875005 0.843 5.3365810546875005 0.843 Z M 5.3290810546875 0.915 C 5.3275810546875 0.915 5.3275810546875 0.912 5.3275810546875 0.906 C 5.3275810546875 0.909 5.3290810546875 0.912 5.3290810546875 0.915 Z M 5.3560810546875 1.0545 C 5.3545810546875 1.053 5.3545810546875 1.05 5.3545810546875 1.05 Z M 5.83599755859375 1.299 C 5.83749755859375 1.2945 5.84199755859375 1.2945 5.84199755859375 1.2945 C 5.78499755859375 1.194 5.77149755859375 1.044 5.77149755859375 0.9135 C 5.77149755859375 0.861 5.77299755859375 0.8115 5.77599755859375 0.7695000000000001 C 5.88549755859375 0.5745 5.99049755859375 0.33299999999999996 6.01449755859375 0.09299999999999997 C 6.01449755859375 0.08850000000000002 6.01599755859375 0.08549999999999991 6.01599755859375 0.08099999999999996 C 6.01599755859375 0.038999999999999924 5.98149755859375 0 5.9469975585937505 0 C 5.93799755859375 0 5.92749755859375 0.0029999999999998916 5.91849755859375 0.008999999999999897 C 5.84499755859375 0.025500000000000078 5.82249755859375 0.04499999999999993 5.77149755859375 0.10050000000000003 C 5.66199755859375 0.21750000000000003 5.5959975585937505 0.5895 5.5959975585937505 0.861 C 5.5959975585937505 1.0095 5.61399755859375 1.167 5.69349755859375 1.296 C 5.69499755859375 1.29 5.70099755859375 1.287 5.70399755859375 1.287 C 5.71899755859375 1.287 5.73399755859375 1.2975 5.74899755859375 1.2975 C 5.74899755859375 1.2975 5.76549755859375 1.2945 5.77299755859375 1.2945 C 5.77599755859375 1.296 5.77899755859375 1.2975 5.77899755859375 1.299 C 5.77899755859375 1.299 5.79699755859375 1.284 5.81349755859375 1.284 C 5.82399755859375 1.284 5.82849755859375 1.299 5.83599755859375 1.299 Z M 5.92749755859375 0.09899999999999998 C 5.92749755859375 0.21750000000000003 5.83149755859375 0.507 5.78499755859375 0.6135 L 5.78499755859375 0.606 C 5.79399755859375 0.49350000000000005 5.87499755859375 0.129 5.92749755859375 0.09899999999999998 Z M 5.64999755859375 0.867 C 5.64399755859375 0.8925000000000001 5.64099755859375 0.9135 5.64099755859375 0.933 C 5.64099755859375 1.077 5.66349755859375 1.1295 5.67249755859375 1.152 C 5.67249755859375 1.1535 5.67699755859375 1.161 5.67699755859375 1.1625 C 5.67849755859375 1.176 5.69799755859375 1.197 5.69949755859375 1.206 C 5.69949755859375 1.2105 5.69949755859375 1.212 5.69649755859375 1.215 C 5.69649755859375 1.203 5.69049755859375 1.1955 5.69049755859375 1.1925000000000001 C 5.69049755859375 1.1955 5.68749755859375 1.1955 5.68749755859375 1.1955 L 5.69799755859375 1.23 C 5.69799755859375 1.2315 5.69049755859375 1.218 5.68599755859375 1.212 C 5.68449755859375 1.212 5.68299755859375 1.206 5.68299755859375 1.2075 C 5.68299755859375 1.203 5.68149755859375 1.197 5.67699755859375 1.194 C 5.66799755859375 1.1805 5.66499755859375 1.161 5.65599755859375 1.1445 C 5.64849755859375 1.1415 5.64699755859375 1.134 5.64549755859375 1.1265 C 5.64549755859375 1.125 5.64999755859375 1.1295 5.65299755859375 1.1295 C 5.64849755859375 1.1295 5.6424975585937505 1.041 5.63649755859375 1.041 C 5.63499755859375 1.0425 5.63349755859375 1.0455 5.63349755859375 1.05 C 5.63349755859375 1.0635 5.64549755859375 1.089 5.64549755859375 1.104 C 5.64549755859375 1.107 5.63199755859375 1.092 5.63199755859375 1.086 C 5.63199755859375 1.086 5.63349755859375 1.0785 5.63349755859375 1.0755 C 5.63349755859375 1.0665 5.63199755859375 1.047 5.62599755859375 1.0455 C 5.62599755859375 1.0455 5.62449755859375 1.0425 5.62449755859375 1.0395 C 5.62449755859375 1.038 5.62599755859375 1.0365 5.62749755859375 1.0365 C 5.62899755859375 1.035 5.62899755859375 1.0335 5.62899755859375 1.032 C 5.62899755859375 1.029 5.62749755859375 1.0275 5.62599755859375 1.0215 C 5.62599755859375 1.0215 5.62749755859375 1.0185 5.62749755859375 1.017 C 5.62749755859375 0.996 5.61699755859375 0.9705 5.61699755859375 0.9495 L 5.61699755859375 0.9345 C 5.61699755859375 0.9285 5.61849755859375 0.927 5.62149755859375 0.9255 C 5.61999755859375 0.927 5.61999755859375 0.9285 5.61999755859375 0.9299999999999999 C 5.61999755859375 0.9315 5.61999755859375 0.933 5.62149755859375 0.9345 L 5.62149755859375 0.9390000000000001 C 5.62299755859375 0.942 5.62299755859375 0.948 5.62299755859375 0.954 L 5.62299755859375 0.9615 C 5.62599755859375 0.9555 5.62749755859375 0.954 5.62749755859375 0.9510000000000001 L 5.62599755859375 0.9315 L 5.62599755859375 0.927 C 5.62599755859375 0.927 5.62749755859375 0.9285 5.62899755859375 0.9285 C 5.62899755859375 0.9195 5.62599755859375 0.915 5.62599755859375 0.9135 C 5.62599755859375 0.912 5.62599755859375 0.9105000000000001 5.63049755859375 0.9105000000000001 C 5.63199755859375 0.9165 5.63349755859375 0.9225 5.63349755859375 0.927 C 5.63349755859375 0.9299999999999999 5.63199755859375 0.933 5.63049755859375 0.9359999999999999 L 5.63199755859375 0.9465 C 5.63199755859375 0.9510000000000001 5.63049755859375 0.9585 5.62599755859375 0.96 C 5.62749755859375 0.9675 5.63199755859375 0.987 5.63199755859375 0.9944999999999999 L 5.63199755859375 1.008 C 5.63199755859375 1.017 5.63349755859375 1.0155 5.63349755859375 1.0275 L 5.63349755859375 1.0395 C 5.63499755859375 1.035 5.63649755859375 1.035 5.63799755859375 1.035 C 5.63799755859375 1.0230000000000001 5.63799755859375 1.014 5.63499755859375 0.9705 L 5.63499755859375 0.9299999999999999 C 5.63499755859375 0.921 5.63799755859375 0.912 5.63799755859375 0.9015 C 5.63799755859375 0.894 5.63949755859375 0.882 5.64399755859375 0.8775 C 5.64399755859375 0.876 5.64099755859375 0.873 5.64099755859375 0.8714999999999999 Z M 6.4269382324218745 0.9315 C 6.434438232421875 0.9195 6.440438232421875 0.9075 6.449438232421874 0.8985000000000001 L 6.462938232421875 0.879 C 6.465938232421875 0.879 6.465938232421875 0.8775 6.465938232421875 0.876 C 6.467438232421875 0.873 6.470438232421875 0.873 6.471938232421874 0.87 C 6.470438232421875 0.8714999999999999 6.470438232421875 0.873 6.470438232421875 0.8745 C 6.470438232421875 0.8745 6.467438232421875 0.879 6.465938232421875 0.882 C 6.464438232421875 0.885 6.462938232421875 0.885 6.461438232421875 0.8865000000000001 C 6.4524382324218745 0.897 6.446438232421874 0.9105000000000001 6.446438232421874 0.9135 C 6.446438232421874 0.915 6.4524382324218745 0.9075 6.4524382324218745 0.9075 C 6.459938232421875 0.8985000000000001 6.480938232421875 0.867 6.482438232421875 0.864 C 6.494438232421874 0.852 6.483938232421875 0.8475 6.495938232421874 0.8445 L 6.501938232421875 0.831 C 6.506438232421875 0.819 6.509438232421875 0.8085 6.509438232421875 0.798 C 6.509438232421875 0.7935 6.509438232421875 0.7889999999999999 6.507938232421875 0.783 C 6.506438232421875 0.7785 6.495938232421874 0.7545 6.489938232421875 0.7545 C 6.4764382324218746 0.7545 6.464438232421875 0.7815000000000001 6.464438232421875 0.7815000000000001 C 6.407438232421875 0.879 6.246938232421875 1.068 6.221438232421875 1.065 C 6.206438232421875 1.0635 6.203438232421875 0.9 6.203438232421875 0.7965 L 6.203438232421875 0.729 C 6.203438232421875 0.7245 6.204938232421875 0.7215 6.204938232421875 0.7185 L 6.204938232421875 0.708 C 6.204938232421875 0.6975 6.206438232421875 0.696 6.207938232421875 0.687 C 6.207938232421875 0.6795 6.201938232421875 0.681 6.201938232421875 0.672 C 6.209438232421875 0.672 6.213938232421874 0.669 6.2169382324218745 0.666 C 6.2169382324218745 0.666 6.2184382324218745 0.663 6.2184382324218745 0.66 C 6.2184382324218745 0.6405 6.141938232421874 0.627 6.128438232421875 0.627 C 6.114938232421875 0.627 6.102938232421875 0.63 6.092438232421875 0.6345 C 5.973938232421875 0.69 5.891438232421875 0.876 5.883938232421874 0.999 C 5.883938232421874 1.0245 5.891438232421875 1.0485 5.9139382324218746 1.0635 C 5.925938232421875 1.0725 5.939438232421875 1.0755 5.952938232421875 1.0755 C 5.961938232421875 1.0755 5.969438232421875 1.074 5.976938232421874 1.071 C 5.987438232421875 1.065 5.988938232421875 1.056 5.999438232421875 1.0455 C 6.020438232421875 1.0485 6.096938232421874 0.9075 6.119438232421874 0.8325 C 6.119438232421874 0.831 6.1224382324218745 0.8205 6.125438232421875 0.8175 C 6.1239382324218745 0.8400000000000001 6.1224382324218745 0.867 6.1224382324218745 0.8955 C 6.1224382324218745 0.9555 6.1239382324218745 1.113 6.2169382324218745 1.113 C 6.222938232421875 1.113 6.227438232421875 1.1115 6.233438232421875 1.11 C 6.245438232421875 1.11 6.252938232421875 1.11 6.2649382324218745 1.107 C 6.2874382324218745 1.0965 6.296438232421875 1.098 6.3114382324218745 1.08 C 6.317438232421875 1.071 6.323438232421875 1.0695000000000001 6.329438232421874 1.0665 C 6.3354382324218745 1.0635 6.3819382324218745 1.0065 6.3819382324218745 1.0065 C 6.384938232421875 1.002 6.390938232421875 0.996 6.392438232421875 0.9915 C 6.393938232421875 0.993 6.399938232421874 0.984 6.398438232421874 0.984 C 6.401438232421874 0.978 6.411938232421875 0.9690000000000001 6.417938232421875 0.96 C 6.417938232421875 0.9555 6.425438232421874 0.9510000000000001 6.425438232421874 0.9510000000000001 L 6.429938232421875 0.9450000000000001 C 6.429938232421875 0.9450000000000001 6.435938232421875 0.9239999999999999 6.437438232421875 0.9225 C 6.434438232421875 0.921 6.4284382324218745 0.9299999999999999 6.4269382324218745 0.9315 Z M 5.967938232421875 1.02 C 5.990438232421875 0.942 6.083438232421875 0.7215 6.156938232421875 0.6855 C 6.152438232421875 0.6885 6.131438232421875 0.7125 6.129938232421875 0.726 C 6.071438232421874 0.8325 6.0294382324218745 0.915 5.972438232421875 1.0185 C 5.972438232421875 1.0185 5.969438232421875 1.02 5.967938232421875 1.02 Z M 6.392438232421875 0.9435 C 6.387938232421875 0.948 6.383438232421875 0.96 6.377438232421874 0.96 C 6.377438232421874 0.96 6.386438232421875 0.9299999999999999 6.393938232421875 0.9299999999999999 C 6.393938232421875 0.9315 6.395438232421875 0.9255 6.396938232421875 0.9239999999999999 C 6.398438232421874 0.9225 6.396938232421875 0.915 6.4044382324218745 0.915 C 6.4044382324218745 0.9165 6.4059382324218745 0.9179999999999999 6.4059382324218745 0.9195 C 6.4059382324218745 0.9255 6.396938232421875 0.927 6.396938232421875 0.933 C 6.396938232421875 0.9375 6.395438232421875 0.9359999999999999 6.392438232421875 0.9435 Z M 6.390938232421875 0.9615 C 6.390938232421875 0.9615 6.390938232421875 0.96 6.387938232421875 0.9570000000000001 C 6.392438232421875 0.9495 6.401438232421874 0.9405 6.407438232421875 0.9345 C 6.408938232421875 0.9359999999999999 6.410438232421875 0.9375 6.410438232421875 0.9390000000000001 C 6.410438232421875 0.9405 6.408938232421875 0.942 6.407438232421875 0.9435 C 6.4044382324218745 0.948 6.402938232421874 0.9525 6.396938232421875 0.9555 L 6.398438232421874 0.9510000000000001 C 6.396938232421875 0.9510000000000001 6.392438232421875 0.9615 6.390938232421875 0.9615 Z M 6.090938232421875 0.8235 C 6.089438232421875 0.8235 6.084938232421875 0.8280000000000001 6.084938232421875 0.8265 C 6.084938232421875 0.8220000000000001 6.092438232421875 0.8069999999999999 6.093938232421875 0.8055 C 6.096938232421874 0.8055 6.102938232421875 0.798 6.104438232421875 0.7965 L 6.1014382324218746 0.8055 C 6.1014382324218746 0.8085 6.092438232421875 0.8235 6.090938232421875 0.8235 Z M 6.066938232421875 0.876 C 6.065438232421875 0.876 6.057938232421875 0.8775 6.057938232421875 0.8805000000000001 C 6.057938232421875 0.8714999999999999 6.066938232421875 0.867 6.071438232421874 0.8625 C 6.0774382324218745 0.858 6.080438232421875 0.855 6.081938232421875 0.855 C 6.083438232421875 0.855 6.081938232421875 0.8594999999999999 6.0759382324218745 0.864 C 6.072938232421874 0.867 6.072938232421874 0.8745 6.066938232421875 0.876 Z M 6.084938232421875 0.8415 C 6.084938232421875 0.8505 6.072938232421874 0.8594999999999999 6.068438232421875 0.861 C 6.071438232421874 0.855 6.074438232421874 0.8460000000000001 6.074438232421874 0.849 C 6.0759382324218745 0.8415 6.084938232421875 0.8445 6.084938232421875 0.8415 Z M 6.383438232421875 0.9944999999999999 C 6.383438232421875 0.9884999999999999 6.384938232421875 0.987 6.387938232421875 0.987 C 6.384938232421875 0.9855 6.384938232421875 0.984 6.384938232421875 0.9824999999999999 C 6.389438232421875 0.9705 6.396938232421875 0.9675 6.399938232421874 0.9585 C 6.399938232421874 0.966 6.396938232421875 0.9675 6.395438232421875 0.9705 C 6.393938232421875 0.9795 6.390938232421875 0.984 6.387938232421875 0.987 Z M 6.423938232421875 0.8835 L 6.431438232421875 0.8835 C 6.429938232421875 0.885 6.414938232421875 0.8985000000000001 6.414938232421875 0.897 C 6.414938232421875 0.8955 6.413438232421875 0.8925000000000001 6.413438232421875 0.891 L 6.419438232421875 0.891 C 6.419438232421875 0.8865000000000001 6.420938232421875 0.8865000000000001 6.423938232421875 0.8835 Z M 6.126938232421875 0.765 C 6.1239382324218745 0.771 6.119438232421874 0.7755000000000001 6.117938232421874 0.774 L 6.1224382324218745 0.768 C 6.1239382324218745 0.7695000000000001 6.126938232421875 0.765 6.126938232421875 0.765 Z M 6.084938232421875 0.864 C 6.084938232421875 0.864 6.086438232421875 0.867 6.086438232421875 0.8685 C 6.083438232421875 0.8685 6.080438232421875 0.873 6.080438232421875 0.873 C 6.080438232421875 0.87 6.083438232421875 0.8654999999999999 6.084938232421875 0.864 Z M 6.081938232421875 0.876 L 6.092438232421875 0.867 C 6.090938232421875 0.8714999999999999 6.084938232421875 0.8745 6.081938232421875 0.876 Z M 6.813907470703125 1.1475 C 6.923407470703125 1.1475 7.079407470703124 0.9555 7.137907470703125 0.8505 C 7.139407470703125 0.849 7.139407470703125 0.8460000000000001 7.139407470703125 0.8415 C 7.139407470703125 0.825 7.128907470703124 0.7935 7.113907470703125 0.7935 C 7.1094074707031245 0.7935 7.103407470703124 0.7965 7.098907470703124 0.804 C 7.004407470703124 0.9315 6.8994074707031245 1.056 6.878407470703125 1.056 C 6.876907470703125 1.056 6.8754074707031245 1.0515 6.8754074707031245 1.0425 C 6.8754074707031245 1.005 6.888907470703124 0.903 6.888907470703124 0.8295 C 6.888907470703124 0.7995 6.885907470703124 0.7725 6.879907470703125 0.759 C 6.866407470703124 0.729 6.812407470703125 0.7155 6.770407470703124 0.7155 C 6.753907470703124 0.7155 6.740407470703125 0.717 6.729907470703124 0.7215 C 6.657907470703124 0.75 6.600907470703125 0.8625 6.576907470703125 0.8985000000000001 C 6.587407470703124 0.8505 6.608407470703124 0.753 6.6159074707031245 0.711 L 6.6159074707031245 0.705 C 6.6159074707031245 0.6855 6.597907470703125 0.6675 6.576907470703125 0.6675 C 6.5694074707031245 0.6675 6.560407470703124 0.6705 6.552907470703125 0.6765 C 6.519907470703124 0.6885 6.479407470703125 0.6765 6.468907470703124 0.7215 C 6.447907470703124 0.8145 6.420907470703124 0.9855 6.420907470703124 1.083 C 6.4284074707031245 1.11 6.449407470703124 1.098 6.480907470703125 1.1115 C 6.492907470703124 1.1235 6.504907470703125 1.1295 6.515407470703124 1.1295 C 6.531907470703125 1.1295 6.5469074707031245 1.116 6.555907470703124 1.0905 C 6.606907470703124 0.984 6.653407470703124 0.885 6.728407470703124 0.798 C 6.7344074707031245 0.7995 6.735907470703125 0.81 6.735907470703125 0.825 C 6.735907470703125 0.873 6.716407470703125 0.972 6.716407470703125 1.0425 C 6.716407470703125 1.1115 6.738907470703125 1.1475 6.813907470703125 1.1475 Z" fill="#fffdfa" fill-rule="nonzero"></path></g><g><path d=" M 0.4257273101806651 1.9630359375 L 0.4257273101806651 1.6302234375 L 0.5386960601806651 1.6302234375 Q 0.5916648101806651 1.6302234375 0.6270554351806651 1.6524890625 Q 0.6624460601806651 1.6747546875 0.6802585601806651 1.7124890625 Q 0.698071060180665 1.7502234374999999 0.698071060180665 1.7961609374999998 Q 0.698071060180665 1.8467859375 0.6786179351806652 1.8842859374999998 Q 0.6591648101806651 1.9217859375 0.6233054351806651 1.9424109375 Q 0.587446060180665 1.9630359375 0.5386960601806651 1.9630359375 L 0.4257273101806651 1.9630359375 Z M 0.6652585601806651 1.7961609374999998 Q 0.6652585601806651 1.7563171874999999 0.6504929351806651 1.7253796875 Q 0.6357273101806651 1.6944421875 0.6076023101806651 1.6768640625 Q 0.5794773101806651 1.6592859375 0.5386960601806651 1.6592859375 L 0.4585398101806651 1.6592859375 L 0.4585398101806651 1.9339734375 L 0.5386960601806651 1.9339734375 Q 0.5799460601806651 1.9339734375 0.6080710601806651 1.9156921875 Q 0.6361960601806651 1.8974109375 0.6507273101806651 1.8662390625 Q 0.6652585601806651 1.8350671875 0.6652585601806651 1.7961609374999998 Z M 0.9891487884521495 1.9339734375 L 0.9891487884521495 1.9630359375 L 0.7655550384521496 1.9630359375 L 0.7655550384521496 1.6302234375 L 0.9849300384521495 1.6302234375 L 0.9849300384521495 1.6592859375 L 0.7983675384521496 1.6592859375 L 0.7983675384521496 1.7792859374999999 L 0.9610237884521495 1.7792859374999999 L 0.9610237884521495 1.8069421875 L 0.7983675384521496 1.8069421875 L 0.7983675384521496 1.9339734375 L 0.9891487884521495 1.9339734375 Z M 0.8925862884521495 1.5847546874999998 L 0.8714925384521495 1.5767859375 L 0.8991487884521495 1.5331921875 L 0.9328987884521496 1.5331921875 L 0.8925862884521495 1.5847546874999998 Z M 1.0542805480957043 1.6302234375 L 1.1733430480957043 1.9222546875 L 1.2919367980957044 1.6302234375 L 1.3261555480957044 1.6302234375 L 1.1883430480957042 1.9630359375 L 1.1583430480957042 1.9630359375 L 1.0200617980957043 1.6302234375 L 1.0542805480957043 1.6302234375 Z M 1.602228240966798 1.9339734375 L 1.602228240966798 1.9630359375 L 1.378634490966798 1.9630359375 L 1.378634490966798 1.6302234375 L 1.5980094909667981 1.6302234375 L 1.5980094909667981 1.6592859375 L 1.411446990966798 1.6592859375 L 1.411446990966798 1.7792859374999999 L 1.574103240966798 1.7792859374999999 L 1.574103240966798 1.8069421875 L 1.411446990966798 1.8069421875 L 1.411446990966798 1.9339734375 L 1.602228240966798 1.9339734375 Z M 1.6687662506103527 1.9630359375 L 1.6687662506103527 1.6302234375 L 1.7015787506103526 1.6302234375 L 1.7015787506103526 1.9339734375 L 1.8937662506103528 1.9339734375 L 1.8937662506103528 1.9630359375 L 1.6687662506103527 1.9630359375 Z M 2.067154083251954 1.9653796875 Q 2.031997833251954 1.9653796875 2.003404083251954 1.9513171875 Q 1.9748103332519542 1.9372546874999999 1.954185333251954 1.9131140625 Q 1.9335603332519542 1.8889734375 1.9223103332519542 1.8587390625 Q 1.9110603332519542 1.8285046875 1.9110603332519542 1.7966296874999999 Q 1.9110603332519542 1.7633484375 1.9227790832519542 1.7331140624999999 Q 1.9344978332519542 1.7028796874999999 1.9558259582519542 1.6792078125 Q 1.977154083251954 1.6555359374999998 2.005747833251954 1.6417078125 Q 2.0343415832519542 1.6278796875 2.067622833251954 1.6278796875 Q 2.102779083251954 1.6278796875 2.1313728332519544 1.6424109375 Q 2.159966583251954 1.6569421874999999 2.1803572082519542 1.6813171875 Q 2.2007478332519543 1.7056921875 2.2119978332519543 1.7356921875 Q 2.2232478332519543 1.7656921875 2.2232478332519543 1.7970984374999999 Q 2.2232478332519543 1.8303796875 2.2115290832519543 1.8606140624999998 Q 2.1998103332519543 1.8908484374999999 2.178716583251954 1.9145203124999999 Q 2.157622833251954 1.9381921874999999 2.1290290832519543 1.9517859375 Q 2.100435333251954 1.9653796875 2.067154083251954 1.9653796875 Z M 1.9438728332519541 1.7966296874999999 Q 1.9438728332519541 1.8238171875 1.9527790832519543 1.8488953124999998 Q 1.9616853332519542 1.8739734375 1.978091583251954 1.8934265625 Q 1.994497833251954 1.9128796875 2.0172322082519543 1.9243640625 Q 2.039966583251954 1.9358484375 2.067154083251954 1.9358484375 Q 2.0957478332519544 1.9358484375 2.118482208251954 1.9238953125 Q 2.1412165832519543 1.9119421875 2.1573884582519542 1.8920203125 Q 2.173560333251954 1.8720984375 2.181997833251954 1.8472546875 Q 2.190435333251954 1.8224109375 2.190435333251954 1.7966296874999999 Q 2.190435333251954 1.7694421875 2.181529083251954 1.7445984374999999 Q 2.172622833251954 1.7197546875 2.155982208251954 1.7000671875 Q 2.1393415832519542 1.6803796874999999 2.1168415832519543 1.6691296875 Q 2.0943415832519543 1.6578796875 2.067154083251954 1.6578796875 Q 2.039029083251954 1.6578796875 2.0162947082519542 1.6695984375 Q 1.9935603332519543 1.6813171875 1.977388458251954 1.7012390625 Q 1.9612165832519541 1.7211609374999999 1.9525447082519543 1.7460046875 Q 1.9438728332519541 1.7708484375 1.9438728332519541 1.7966296874999999 Z M 2.289799346923829 1.9630359375 L 2.289799346923829 1.6302234375 L 2.4276118469238295 1.6302234375 Q 2.4491743469238294 1.6302234375 2.4672212219238294 1.6391296874999999 Q 2.4852680969238294 1.6480359375 2.4983930969238295 1.6632703125 Q 2.5115180969238295 1.6785046874999998 2.5190180969238294 1.6970203124999999 Q 2.5265180969238292 1.7155359374999999 2.5265180969238292 1.7347546875 Q 2.5265180969238292 1.7619421874999999 2.5145649719238294 1.7860828125 Q 2.502611846923829 1.8102234375 2.4810493469238293 1.8252234375 Q 2.4594868469238294 1.8402234375 2.430424346923829 1.8402234375 L 2.3226118469238295 1.8402234375 L 2.3226118469238295 1.9630359375 L 2.289799346923829 1.9630359375 Z M 2.3226118469238295 1.8111609375 L 2.4290180969238295 1.8111609375 Q 2.4487055969238294 1.8111609375 2.4632368469238295 1.8003796875 Q 2.477768096923829 1.7895984375 2.4857368469238295 1.7722546875 Q 2.4937055969238293 1.7549109375 2.4937055969238293 1.7347546875 Q 2.4937055969238293 1.7141296874999998 2.4843305969238294 1.6967859375 Q 2.4749555969238295 1.6794421874999999 2.459721221923829 1.6693640625 Q 2.4444868469238292 1.6592859375 2.4262055969238294 1.6592859375 L 2.3226118469238295 1.6592859375 L 2.3226118469238295 1.8111609375 Z M 2.58602508544922 1.9630359375 L 2.58602508544922 1.6302234375 L 2.7238375854492203 1.6302234375 Q 2.74540008544922 1.6302234375 2.7634469604492202 1.6391296874999999 Q 2.7814938354492202 1.6480359375 2.7946188354492203 1.6632703125 Q 2.8077438354492203 1.6785046874999998 2.81524383544922 1.6970203124999999 Q 2.82274383544922 1.7155359374999999 2.82274383544922 1.7347546875 Q 2.82274383544922 1.7619421874999999 2.8107907104492202 1.7860828125 Q 2.79883758544922 1.8102234375 2.77727508544922 1.8252234375 Q 2.75571258544922 1.8402234375 2.72665008544922 1.8402234375 L 2.6188375854492203 1.8402234375 L 2.6188375854492203 1.9630359375 L 2.58602508544922 1.9630359375 Z M 2.6188375854492203 1.8111609375 L 2.7252438354492203 1.8111609375 Q 2.74493133544922 1.8111609375 2.7594625854492203 1.8003796875 Q 2.77399383544922 1.7895984375 2.7819625854492203 1.7722546875 Q 2.78993133544922 1.7549109375 2.78993133544922 1.7347546875 Q 2.78993133544922 1.7141296874999998 2.78055633544922 1.6967859375 Q 2.7711813354492203 1.6794421874999999 2.75594696044922 1.6693640625 Q 2.74071258544922 1.6592859375 2.7224313354492202 1.6592859375 L 2.6188375854492203 1.6592859375 L 2.6188375854492203 1.8111609375 Z M 3.105844573974611 1.9339734375 L 3.105844573974611 1.9630359375 L 2.8822508239746107 1.9630359375 L 2.8822508239746107 1.6302234375 L 3.101625823974611 1.6302234375 L 3.101625823974611 1.6592859375 L 2.915063323974611 1.6592859375 L 2.915063323974611 1.7792859374999999 L 3.077719573974611 1.7792859374999999 L 3.077719573974611 1.8069421875 L 2.915063323974611 1.8069421875 L 2.915063323974611 1.9339734375 L 3.105844573974611 1.9339734375 Z M 3.307851333618166 1.9653796875 Q 3.2684763336181657 1.9653796875 3.241288833618166 1.9513171875 Q 3.214101333618166 1.9372546874999999 3.1981638336181657 1.9135828124999998 Q 3.182226333618166 1.8899109374999998 3.174960708618166 1.8599109375 Q 3.167695083618166 1.8299109375 3.167695083618166 1.7980359375 L 3.167695083618166 1.6302234375 L 3.2000388336181658 1.6302234375 L 3.2000388336181658 1.7980359375 Q 3.2000388336181658 1.8238171875 3.2054294586181658 1.8486609375 Q 3.2108200836181657 1.8735046874999999 3.2230075836181658 1.8931921875 Q 3.2351950836181658 1.9128796875 3.2558200836181657 1.9243640625 Q 3.276445083618166 1.9358484375 3.307382583618166 1.9358484375 Q 3.3392575836181657 1.9358484375 3.360116958618166 1.9238953125 Q 3.380976333618166 1.9119421875 3.3929294586181658 1.8922546875 Q 3.404882583618166 1.8725671874999998 3.4100388336181657 1.8479578125 Q 3.415195083618166 1.8233484375 3.415195083618166 1.7980359375 L 3.415195083618166 1.6302234375 L 3.448007583618166 1.6302234375 L 3.448007583618166 1.7980359375 Q 3.448007583618166 1.8313171874999998 3.4405075836181656 1.8617859374999999 Q 3.4330075836181657 1.8922546875 3.4163669586181658 1.9152234375 Q 3.399726333618166 1.9381921874999999 3.3730075836181657 1.9517859375 Q 3.346288833618166 1.9653796875 3.307851333618166 1.9653796875 Z M 3.530950012207033 1.9630359375 L 3.530950012207033 1.6302234375 L 3.671575012207033 1.6302234375 Q 3.6931375122070333 1.6302234375 3.710950012207033 1.6391296874999999 Q 3.7287625122070334 1.6480359375 3.742121887207033 1.6632703125 Q 3.755481262207033 1.6785046874999998 3.762746887207033 1.6970203124999999 Q 3.770012512207033 1.7155359374999999 3.770012512207033 1.7347546875 Q 3.770012512207033 1.7586609375 3.760871887207033 1.7797546874999999 Q 3.7517312622070333 1.8008484375 3.7350906372070334 1.8153796875 Q 3.718450012207033 1.8299109375 3.695950012207033 1.8345984375 L 3.777512512207033 1.9630359375 L 3.740481262207033 1.9630359375 L 3.662200012207033 1.8402234375 L 3.5637625122070333 1.8402234375 L 3.5637625122070333 1.9630359375 L 3.530950012207033 1.9630359375 Z M 3.5637625122070333 1.8111609375 L 3.672512512207033 1.8111609375 Q 3.6922000122070333 1.8111609375 3.706731262207033 1.8003796875 Q 3.721262512207033 1.7895984375 3.7292312622070334 1.7720203125 Q 3.7372000122070332 1.7544421875 3.7372000122070332 1.7347546875 Q 3.7372000122070332 1.7145984374999999 3.728059387207033 1.6974890624999999 Q 3.718918762207033 1.6803796874999999 3.703684387207033 1.6698328125 Q 3.688450012207033 1.6592859375 3.6697000122070333 1.6592859375 L 3.5637625122070333 1.6592859375 L 3.5637625122070333 1.8111609375 Z M 3.9659021759033224 1.9630359375 L 3.9659021759033224 1.6302234375 L 4.184339675903322 1.6302234375 L 4.184339675903322 1.6592859375 L 3.9987146759033227 1.6592859375 L 3.9987146759033227 1.7816296875 L 4.155277175903323 1.7816296875 L 4.155277175903323 1.8088171874999999 L 3.9987146759033227 1.8088171874999999 L 3.9987146759033227 1.9630359375 L 3.9659021759033224 1.9630359375 Z M 4.382147140502932 1.9653796875 Q 4.342772140502932 1.9653796875 4.315584640502932 1.9513171875 Q 4.288397140502932 1.9372546874999999 4.272459640502932 1.9135828124999998 Q 4.256522140502932 1.8899109374999998 4.249256515502932 1.8599109375 Q 4.241990890502932 1.8299109375 4.241990890502932 1.7980359375 L 4.241990890502932 1.6302234375 L 4.274334640502932 1.6302234375 L 4.274334640502932 1.7980359375 Q 4.274334640502932 1.8238171875 4.2797252655029325 1.8486609375 Q 4.285115890502932 1.8735046874999999 4.2973033905029325 1.8931921875 Q 4.309490890502932 1.9128796875 4.330115890502932 1.9243640625 Q 4.350740890502932 1.9358484375 4.381678390502932 1.9358484375 Q 4.4135533905029325 1.9358484375 4.434412765502932 1.9238953125 Q 4.455272140502932 1.9119421875 4.4672252655029325 1.8922546875 Q 4.479178390502932 1.8725671874999998 4.484334640502932 1.8479578125 Q 4.489490890502932 1.8233484375 4.489490890502932 1.7980359375 L 4.489490890502932 1.6302234375 L 4.522303390502932 1.6302234375 L 4.522303390502932 1.7980359375 Q 4.522303390502932 1.8313171874999998 4.514803390502932 1.8617859374999999 Q 4.5073033905029325 1.8922546875 4.4906627655029325 1.9152234375 Q 4.474022140502932 1.9381921874999999 4.447303390502932 1.9517859375 Q 4.420584640502932 1.9653796875 4.382147140502932 1.9653796875 Z M 4.6052458190918 1.9630359375 L 4.6052458190918 1.6302234375 L 4.638058319091799 1.6302234375 L 4.638058319091799 1.9339734375 L 4.830245819091799 1.9339734375 L 4.830245819091799 1.9630359375 L 4.6052458190918 1.9630359375 Z M 4.883189620971683 1.9630359375 L 4.883189620971683 1.6302234375 L 4.916002120971682 1.6302234375 L 4.916002120971682 1.9339734375 L 5.108189620971682 1.9339734375 L 5.108189620971682 1.9630359375 L 4.883189620971683 1.9630359375 Z M 5.3556646728515656 1.6925671875 Q 5.348633422851566 1.6845984375 5.339258422851565 1.6782703125 Q 5.329883422851566 1.6719421875 5.318164672851566 1.6672546874999998 Q 5.306445922851566 1.6625671874999999 5.293086547851566 1.6597546875 Q 5.279727172851565 1.6569421874999999 5.264727172851566 1.6569421874999999 Q 5.221133422851565 1.6569421874999999 5.200742797851565 1.6735828124999999 Q 5.180352172851565 1.6902234374999998 5.180352172851565 1.7188171875 Q 5.180352172851565 1.7385046874999999 5.189961547851565 1.7497546874999999 Q 5.199570922851565 1.7610046874999998 5.220195922851565 1.7680359374999999 Q 5.240820922851565 1.7750671875 5.2726959228515655 1.7825671875 Q 5.308320922851565 1.7900671875 5.334102172851566 1.8003796875 Q 5.359883422851565 1.8106921875 5.373945922851566 1.8282703125 Q 5.3880084228515654 1.8458484375 5.3880084228515654 1.8758484375 Q 5.3880084228515654 1.8988171875 5.3791021728515656 1.9156921875 Q 5.370195922851566 1.9325671875 5.354258422851565 1.9438171874999999 Q 5.338320922851565 1.9550671874999999 5.316289672851566 1.9604578124999998 Q 5.2942584228515654 1.9658484375 5.268008422851565 1.9658484375 Q 5.242227172851566 1.9658484375 5.218555297851566 1.9604578124999998 Q 5.194883422851565 1.9550671874999999 5.173789672851566 1.9445203125 Q 5.152695922851565 1.9339734375 5.134414672851565 1.9175671875 L 5.150820922851565 1.8908484374999999 Q 5.159727172851565 1.9002234375 5.1721490478515655 1.9084265624999999 Q 5.184570922851566 1.9166296875 5.199805297851565 1.9231921875 Q 5.2150396728515656 1.9297546875 5.2326177978515656 1.9332703125 Q 5.2501959228515656 1.9367859374999998 5.268945922851565 1.9367859374999998 Q 5.3087896728515656 1.9367859374999998 5.331055297851566 1.9222546875 Q 5.353320922851566 1.9077234374999998 5.353320922851566 1.8791296874999999 Q 5.353320922851566 1.8585046875 5.3420709228515655 1.8460828125 Q 5.330820922851565 1.8336609375 5.308320922851565 1.8256921875 Q 5.285820922851565 1.8177234375 5.253008422851566 1.8102234375 Q 5.218320922851565 1.8022546875 5.194414672851566 1.7924109375 Q 5.170508422851565 1.7825671875 5.158555297851565 1.7663953125 Q 5.146602172851566 1.7502234374999999 5.146602172851566 1.7235046875 Q 5.146602172851566 1.6925671875 5.161836547851565 1.6712390625 Q 5.1770709228515654 1.6499109375 5.203789672851565 1.6388953124999999 Q 5.230508422851566 1.6278796875 5.265195922851565 1.6278796875 Q 5.287227172851566 1.6278796875 5.306211547851565 1.6323328125 Q 5.325195922851566 1.6367859375 5.341367797851565 1.6452234374999999 Q 5.357539672851566 1.6536609375 5.371602172851565 1.6663171875 L 5.3556646728515656 1.6925671875 Z M 5.6861132812500035 1.6592859375 L 5.567519531250003 1.6592859375 L 5.567519531250003 1.9630359375 L 5.5347070312500035 1.9630359375 L 5.5347070312500035 1.6592859375 L 5.416113281250003 1.6592859375 L 5.416113281250003 1.6302234375 L 5.6861132812500035 1.6302234375 L 5.6861132812500035 1.6592859375 Z M 5.811706008911136 1.6302234375 L 5.8393622589111365 1.6302234375 L 5.977643508911136 1.9630359375 L 5.942956008911136 1.9630359375 L 5.8998310089111365 1.8589734375 L 5.750299758911136 1.8589734375 L 5.707643508911136 1.9630359375 L 5.672487258911136 1.9630359375 L 5.811706008911136 1.6302234375 Z M 5.892331008911136 1.8331921875 L 5.825299758911136 1.6686609374999999 L 5.7573310089111365 1.8331921875 L 5.892331008911136 1.8331921875 Z M 5.995907592773441 1.7942859375 Q 5.995907592773441 1.7638171875 6.006454467773441 1.7345203125 Q 6.017001342773441 1.7052234375 6.037157592773441 1.6810828125 Q 6.057313842773441 1.6569421874999999 6.086845092773441 1.6426453125 Q 6.1163763427734406 1.6283484375 6.153876342773441 1.6283484375 Q 6.1984075927734406 1.6283484375 6.230048217773441 1.6487390625 Q 6.261688842773441 1.6691296875 6.276688842773441 1.7010046875 L 6.250907592773441 1.7169421875 Q 6.240126342773441 1.6949109375 6.223720092773441 1.6820203125 Q 6.207313842773441 1.6691296875 6.188798217773441 1.6635046875 Q 6.170282592773441 1.6578796875 6.152001342773441 1.6578796875 Q 6.122001342773441 1.6578796875 6.099032592773441 1.6698328125 Q 6.076063842773441 1.6817859375 6.060360717773441 1.7017078125 Q 6.044657592773441 1.7216296875 6.036688842773441 1.7462390625 Q 6.028720092773441 1.7708484375 6.028720092773441 1.7961609374999998 Q 6.028720092773441 1.8238171875 6.038095092773441 1.8491296874999998 Q 6.047470092773441 1.8744421875 6.064345092773441 1.8938953125 Q 6.081220092773441 1.9133484374999998 6.103954467773441 1.9248328125 Q 6.126688842773441 1.9363171875 6.153407592773441 1.9363171875 Q 6.172157592773441 1.9363171875 6.191845092773441 1.9297546875 Q 6.211532592773441 1.9231921875 6.2286419677734415 1.9095984375 Q 6.245751342773441 1.8960046874999998 6.256063842773441 1.8744421875 L 6.283251342773441 1.8885046875 Q 6.272938842773441 1.9133484374999998 6.251376342773441 1.9306921875 Q 6.229813842773441 1.9480359375 6.203329467773441 1.9569421875 Q 6.176845092773441 1.9658484375 6.1515325927734406 1.9658484375 Q 6.117313842773441 1.9658484375 6.088720092773441 1.9510828125 Q 6.060126342773441 1.9363171875 6.039266967773441 1.9117078125 Q 6.018407592773441 1.8870984375 6.007157592773441 1.8563953125 Q 5.995907592773441 1.8256921875 5.995907592773441 1.7942859375 Z M 6.344176712036137 1.9630359375 L 6.344176712036137 1.6306921875 L 6.376989212036136 1.6306921875 L 6.376989212036136 1.8238171875 L 6.5602704620361365 1.6302234375 L 6.5963642120361365 1.6302234375 L 6.460426712036137 1.7764734375 L 6.603395462036136 1.9630359375 L 6.566364212036136 1.9630359375 L 6.439332962036136 1.7961609374999998 L 6.376989212036136 1.8608484374999998 L 6.376989212036136 1.9630359375 L 6.344176712036137 1.9630359375 Z" fill="#b7b7a5" fill-rule="nonzero"></path></g><g clip-path="url(&quot;#SvgjsClipPath1023&quot;)"><path d=" M 3.493879009158722 -6.301652742360117 C 2.338284444105301 -5.729254937269899 2.774675707527552 -5.94523403472959 0.8787764347693132 -5.007427259085032 C 0.8787764347693132 -4.640493312965705 0.8790956157015191 -3.7077756999624367 0.8790601511534953 -3.372192414295386 L 3.493985402802791 -2.0780378601163463 C 3.704999463539272 -2.1826582767840117 3.8764705532301766 -2.2675781370249366 4.066897443839341 -2.3617542442998496 L 1.4913733050435307 -3.6363501002442393 C 1.491798879619807 -4.044582512536278 1.4918520764418406 -4.188870026167599 1.4917456827977724 -4.743145447218097 C 2.706122736199213 -5.344517788043056 2.2771790278617785 -5.132209271303739 3.493985402802791 -5.734184509445088 L 6.108928386726097 -4.440083152088082 L 6.108928386726097 -5.007409526811021 Z" fill="#ba8437" transform="matrix(1,0,0,1,0,0)" fill-rule="nonzero"></path><path d=" M 6.109070244918188 -3.17921207622857 L 3.4940740641728487 -4.473366630407607 L 2.9208605744781027 -4.1896502462241045 L 5.49624285508182 -2.91510758710175 L 5.496384713273913 -1.8080817205657427 C 5.039778657478587 -1.5818533687274217 4.1149164418624 -1.1246976124377417 3.4937903477886647 -0.8171845165308467 L 0.878794167043325 -2.111321338435874 L 0.878794167043325 -1.5439949637129358 L 3.4938080800626765 -0.24982267725988372 C 5.580613014828391 -1.2825680479618473 4.097272829220987 -0.5489306752853418 6.1088929221780734 -1.5442964123711294 C 6.108662402615925 -2.5153866663352162 6.1089993158221425 -2.2021637781966277 6.109070244918188 -3.17921207622857 Z" fill="#ba8437" transform="matrix(1,0,0,1,0,0)" fill-rule="nonzero"></path><path d=" M 3.4939499382547683 -5.387571749342903 C 2.583539525957929 -4.937171989451591 2.7516060190386313 -5.020407283661427 1.8025569816708011 -4.550342431891394 C 1.8025569816708011 -4.290458223979307 1.8025569816708011 -4.08903732348303 1.8023619266566744 -3.8293127060370438 L 4.767641448224572 -2.3617542442998496 C 4.093442658034511 -2.0281747055960953 4.013168653584591 -1.9885253409064516 3.4941272609948824 -1.7311945804520112 C 3.3726789162903317 -1.7912715248028688 1.018559950801723 -2.956299659630391 0.8789714897834399 -3.0253845991790747 L 0.878794167043325 -2.458182350374217 L 3.49373715096663 -1.1640632607432018 C 3.8529043610689344 -1.341811575434166 4.885720660866944 -1.8526429251565633 5.185573414400884 -2.0010265940845375 L 5.185484753030827 -2.722215910404993 L 2.2201165700928724 -4.1899516948823 L 3.4940917964468596 -4.820280839167988 L 6.109034780370164 -3.526161749536972 L 6.109034780370164 -4.093488124259911 Z" fill="#ba8437" transform="matrix(1,0,0,1,0,0)" fill-rule="nonzero"></path></g></g><defs><clipPath id="SvgjsClipPath1023"><path d=" M 0.8787764347693132 -6.301652742360117 h 5.230293810148875 v 6.051652742360117 h -5.230293810148875 Z"></path></clipPath></defs></svg>